<svg xmlns="http://www.w3.org/2000/svg" width="36.355" height="36.357" viewBox="0 0 36.355 36.357">
  <g id="Group_2195" data-name="Group 2195" transform="translate(-0.002)">
    <path id="Path_2536" data-name="Path 2536" d="M.57,36.357H25.849a.568.568,0,1,0,0-1.136H1.589l2.818-4.545H31.959l2.818,4.545H28.689a.568.568,0,1,0,0,1.136h7.1a.568.568,0,0,0,.483-.866L32.95,30.125V11.361a.568.568,0,0,0-.568-.568H29.433a.568.568,0,0,0,0,1.136h2.38V29.54H4.546V11.93H6.995a.568.568,0,1,0,0-1.136H3.978a.568.568,0,0,0-.568.568V30.125L.087,35.49a.568.568,0,0,0,.483.866ZM27.837,6.848a.588.588,0,0,0-.168-.4L21.421.168A.568.568,0,0,0,21.02,0H9.659A1.136,1.136,0,0,0,8.523,1.136V9.089a.568.568,0,0,0,.568.568H27.269a.568.568,0,0,0,.568-.568Zm-6.249-4.9,2.156,2.164L25.9,6.277H21.588ZM26.7,8.521H9.659V1.136H20.452V6.848a.568.568,0,0,0,.568.568H26.7Z" transform="translate(0)" fill="#335f32"/>
    <path id="Path_2537" data-name="Path 2537" d="M48.746,38H30.568a.568.568,0,1,0,0,1.136H48.746a.568.568,0,0,0,0-1.136Zm0,2.272H30.568a.568.568,0,1,0,0,1.136H48.746a.568.568,0,0,0,0-1.136Zm0,2.272H30.568a.568.568,0,0,0-.568.568V54.474a1.136,1.136,0,0,0,1.136,1.136H48.178a1.136,1.136,0,0,0,1.136-1.136V43.113A.568.568,0,0,0,48.746,42.545Zm-17.61,11.93V43.681H48.178V54.474Z" transform="translate(-21.477 -27.207)" fill="#335f32"/>
    <path id="Path_2538" data-name="Path 2538" d="M53.793,62H44.136A1.136,1.136,0,0,0,43,63.136v2.84a1.136,1.136,0,0,0,1.136,1.136h1.25l.682-1.136H44.136v-2.84h9.657v2.84H50.726l.682,1.136h2.386a1.136,1.136,0,0,0,1.136-1.136v-2.84A1.136,1.136,0,0,0,53.793,62Z" transform="translate(-30.785 -44.39)" fill="#335f32"/>
    <path id="Path_2539" data-name="Path 2539" d="M56.767,72.3a.568.568,0,0,0-.974,0l-1.7,2.84a.568.568,0,0,0,.489.852h1.136v1.136a.568.568,0,0,0,1.136,0V76h1.136a.568.568,0,0,0,.486-.852Zm-1.187,2.556.7-1.167.7,1.167Z" transform="translate(-38.669 -51.57)" fill="#335f32"/>
  </g>
</svg>
