<svg id="Group_2435" data-name="Group 2435" xmlns="http://www.w3.org/2000/svg" width="17.319" height="17.066" viewBox="0 0 17.319 17.066">
  <path id="Path_2901" data-name="Path 2901" d="M17.514,7.629H16.07a.253.253,0,1,0,0,.505h1.443a.253.253,0,0,0,0-.505ZM2.4,7.629H.953a.253.253,0,1,0,0,.505H2.4a.253.253,0,1,0,0-.505ZM14.23,12.536a.255.255,0,1,0-.361.361l1.046,1.046a.255.255,0,1,0,.361-.361ZM4.2,3.263a.24.24,0,0,0,.361,0c.072-.108.108-.289,0-.361L3.55,1.856a.24.24,0,0,0-.361,0c-.072.108-.108.289,0,.361Zm0,9.273L3.153,13.582a.255.255,0,0,0,.361.361L4.561,12.9a.24.24,0,0,0,0-.361.274.274,0,0,0-.361,0ZM14.88,1.856,13.833,2.9a.255.255,0,0,0,.361.361l1.046-1.046a.24.24,0,0,0,0-.361A.24.24,0,0,0,14.88,1.856Z" transform="translate(-0.447 -1.279)" fill="#333" opacity="0.15"/>
  <path id="Path_2902" data-name="Path 2902" d="M12.267,1.807A5.655,5.655,0,0,0,7.9.436,5.568,5.568,0,0,0,4.618,9.926a4.721,4.721,0,0,1,1.443,3.319v.649H11v-.649a4.6,4.6,0,0,1,1.443-3.319,5.6,5.6,0,0,0,1.66-3.969,5.373,5.373,0,0,0-1.84-4.149ZM16.85,6.39H15.406a.253.253,0,0,0,0,.505H16.85a.253.253,0,1,0,0-.505Zm-15.118,0H.289A.285.285,0,0,0,0,6.678a.247.247,0,0,0,.253.253H1.7a.247.247,0,0,0,.253-.253C1.948,6.534,1.876,6.39,1.732,6.39ZM13.566,11.3a.255.255,0,0,0-.361.361L14.252,12.7a.255.255,0,0,0,.361-.361ZM2.886.617a.24.24,0,0,0-.361,0c-.072.108-.108.289,0,.361L3.572,2.024a.24.24,0,0,0,.361,0c.072-.108.108-.289,0-.361ZM3.536,11.3,2.49,12.343a.255.255,0,0,0,.361.361L3.9,11.657a.24.24,0,0,0,0-.361A.274.274,0,0,0,3.536,11.3ZM14.216.617,13.169,1.663a.24.24,0,0,0,0,.361.24.24,0,0,0,.361,0L14.577.978a.24.24,0,0,0,0-.361A.24.24,0,0,0,14.216.617Z" transform="translate(0 -0.4)" fill="#333"/>
  <path id="Path_2903" data-name="Path 2903" d="M19.766,6.862a5.06,5.06,0,1,0-8.623,3.608,5.194,5.194,0,0,1,1.624,3.716v.108h3.9V14.15a5.258,5.258,0,0,1,1.624-3.716,5.043,5.043,0,0,0,1.479-3.572Z" transform="translate(-6.164 -1.306)" fill="#ffcf0e"/>
  <path id="Path_2904" data-name="Path 2904" d="M15.984,4.541a.247.247,0,0,1-.253-.253A.279.279,0,0,1,15.984,4h.289a.253.253,0,1,1,0,.505.7.7,0,0,1-.289.036ZM12.3,7.933c-.144-.036-.253-.144-.216-.289a4.212,4.212,0,0,1,3.1-3.464.263.263,0,0,1,.144.505,3.716,3.716,0,0,0-2.706,3.031.281.281,0,0,1-.325.216Z" transform="translate(-7.722 -2.701)" fill="#fff"/>
  <path id="Path_2905" data-name="Path 2905" d="M16.475,1.847A4.98,4.98,0,0,0,13.3,3.507,5.041,5.041,0,0,1,20.264,10.8a5.169,5.169,0,0,0-1.588,3.464h.361v-.108a5.258,5.258,0,0,1,1.624-3.716A4.9,4.9,0,0,0,22.14,6.863,5.127,5.127,0,0,0,16.475,1.847Z" transform="translate(-8.501 -1.306)" fill="#333" opacity="0.15"/>
  <path id="Path_2906" data-name="Path 2906" d="M21.377,40H17.841a.555.555,0,0,0-.541.541v.974a1.278,1.278,0,0,0,1.263,1.263h2.129a1.278,1.278,0,0,0,1.263-1.263v-.974A.616.616,0,0,0,21.377,40Z" transform="translate(-11.058 -25.712)" fill="#333"/>
  <path id="Path_2907" data-name="Path 2907" d="M22.272,41.5v.974a.724.724,0,0,1-.722.722H19.422a.724.724,0,0,1-.722-.722V41.5Z" transform="translate(-11.953 -26.671)" fill="#cd4343"/>
  <path id="Path_2908" data-name="Path 2908" d="M18.8,43v.072a.849.849,0,0,0,.072.289H22.3a.68.68,0,0,0,.072-.289V43H18.8Z" transform="translate(-12.017 -27.63)" fill="#333" opacity="0.15"/>
  <path id="Path_2909" data-name="Path 2909" d="M18.33,21.763a.262.262,0,0,0,.361,0l.613-.613v4.907h.541V21.15l.613.613a.262.262,0,0,0,.361,0L21.9,20.717a.24.24,0,0,0,0-.361c-.108-.072-.289-.108-.361,0l-.866.866-.866-.866a.24.24,0,0,0-.361,0l-.866.866-.866-.866a.255.255,0,0,0-.361.361l.974,1.046Z" transform="translate(-11.042 -13.104)" fill="#fca211"/>
  <path id="Path_2910" data-name="Path 2910" d="M19.493,34.9H15.379a1.479,1.479,0,1,0,0,2.959h4.113a1.486,1.486,0,0,0,1.479-1.479A1.463,1.463,0,0,0,19.493,34.9Z" transform="translate(-8.885 -22.452)" fill="#333"/>
  <path id="Path_2911" data-name="Path 2911" d="M21.389,37.238a.955.955,0,0,1-.938.938H16.338a.938.938,0,1,1,0-1.876h4.113A.955.955,0,0,1,21.389,37.238Z" transform="translate(-9.844 -23.347)" fill="#d2d2d2"/>
  <path id="Path_2912" data-name="Path 2912" d="M20.707,36.3H16.594a.857.857,0,0,0-.794.469,1,1,0,0,1,.469-.108h4.113a.955.955,0,0,1,.938.938,1,1,0,0,1-.108.469.9.9,0,0,0,.469-.794A1.019,1.019,0,0,0,20.707,36.3Z" transform="translate(-10.099 -23.347)" fill="#333" opacity="0.15"/>
</svg>
