<svg id="Group_2172" data-name="Group 2172" xmlns="http://www.w3.org/2000/svg" width="34.657" height="37.894" viewBox="0 0 34.657 37.894">
  <path id="Path_2516" data-name="Path 2516" d="M15.732,22.863c-1.421-.553-1.974-1.026-1.974-1.816,0-.632.474-1.342,1.658-1.342a3.252,3.252,0,0,1,1.974.553l.395-1.026a4.266,4.266,0,0,0-2.053-.553V17.1H14.705v1.579a2.645,2.645,0,0,0-2.447,2.605c0,1.421,1.026,2.132,2.605,2.763,1.184.474,1.816,1.026,1.816,1.895,0,.947-.789,1.579-1.895,1.579a4.146,4.146,0,0,1-2.289-.711L12.1,27.916a4.491,4.491,0,0,0,2.447.711V30.2h1.026V28.547A2.718,2.718,0,0,0,18.1,25.863c.079-1.5-.711-2.289-2.368-3Z" transform="translate(-4.205 -3.6)" fill="#335f32"/>
  <path id="Path_2517" data-name="Path 2517" d="M34.31,15.552H22.7A17.348,17.348,0,0,0,19.784,10.5a2.214,2.214,0,0,0,1.895-2.21,2.259,2.259,0,0,0-2.21-2.21h-.395C20.179,4.421,21.126,2.21,20.494.947A1.625,1.625,0,0,0,18.915,0c-1.263,0-2.526,1.026-3.474,1.974A2.637,2.637,0,0,0,12.995,0a2.637,2.637,0,0,0-2.447,1.974C9.6,1.026,8.337,0,7.074,0A1.758,1.758,0,0,0,5.416,1.026c-.553,1.263.316,3.395,1.5,5.131H6.521a2.211,2.211,0,0,0-.079,4.421,20.542,20.542,0,0,0-4.342,12c0,5.684,3.71,8.526,11.052,8.526a19.2,19.2,0,0,0,4.5-.474v4.895a2.326,2.326,0,0,0,2.368,2.368H34.389a2.326,2.326,0,0,0,2.368-2.368v-17.6A2.5,2.5,0,0,0,34.31,15.552ZM6.916,1.579h.158c.632,0,1.895.868,3.158,2.447a.751.751,0,0,0,.789.316.67.67,0,0,0,.553-.632c.237-1.263.789-2.132,1.342-2.132s1.105.868,1.342,2.132a.9.9,0,0,0,.553.632.647.647,0,0,0,.789-.316c1.421-1.579,2.684-2.447,3.316-2.447h.158c.316.395-.395,2.684-1.974,4.579H8.81C7.31,4.342,6.6,1.974,6.916,1.579ZM5.889,8.368a.679.679,0,0,1,.632-.632H19.468a.679.679,0,0,1,.632.632A.679.679,0,0,1,19.468,9H6.521A.623.623,0,0,1,5.889,8.368Zm7.263,21.079c-6.474,0-9.473-2.21-9.473-6.947a18.567,18.567,0,0,1,4.974-12h9.079a14.8,14.8,0,0,1,3.316,4.974H20.021a2.326,2.326,0,0,0-2.368,2.368V28.894a15.253,15.253,0,0,1-4.5.553ZM35.1,35.526a.791.791,0,0,1-.789.789H19.942a.791.791,0,0,1-.789-.789v-17.6a.791.791,0,0,1,.789-.789H34.31a.791.791,0,0,1,.789.789Z" transform="translate(-2.1)" fill="#335f32"/>
  <path id="Path_2518" data-name="Path 2518" d="M26.247,27.642H37.773a.746.746,0,0,0,.789-.789V24.089a.746.746,0,0,0-.789-.789H26.247a.746.746,0,0,0-.789.789v2.763A.849.849,0,0,0,26.247,27.642Zm.789-2.763h9.947v1.184H27.037Zm.789,5.842H26.089a.789.789,0,1,0,0,1.579h1.737a.789.789,0,0,0,0-1.579Zm5.053,0H31.142a.789.789,0,1,0,0,1.579h1.737a.789.789,0,1,0,0-1.579Zm5.053,0H36.195a.789.789,0,1,0,0,1.579h1.737a.789.789,0,1,0,0-1.579ZM27.826,34.352H26.089a.789.789,0,1,0,0,1.579h1.737a.789.789,0,0,0,0-1.579Zm5.053,0H31.142a.789.789,0,1,0,0,1.579h1.737a.789.789,0,1,0,0-1.579Zm5.053,0H36.195a.789.789,0,1,0,0,1.579h1.737a.789.789,0,1,0,0-1.579ZM27.826,37.984H26.089a.789.789,0,0,0,0,1.579h1.737a.789.789,0,0,0,0-1.579Zm5.053,0H31.142a.789.789,0,0,0,0,1.579h1.737a.789.789,0,1,0,0-1.579Zm5.053,0H36.195a.789.789,0,0,0,0,1.579h1.737a.789.789,0,0,0,0-1.579Z" transform="translate(-6.985 -4.906)" fill="#335f32"/>
</svg>
