<svg id="Group_2425" data-name="Group 2425" xmlns="http://www.w3.org/2000/svg" width="51.984" height="42.456" viewBox="0 0 51.984 42.456">
  <path id="Path_2784" data-name="Path 2784" d="M573.395,1751.491a.715.715,0,0,1-.348-.281c-.108-.2.024-.4.231-.5a1.871,1.871,0,0,1,.4-.124q.271-.062.544-.114.554-.1,1.117-.167c.16-.018.32-.032.481-.043-.033-.014-.066-.029-.1-.046a.493.493,0,0,1-.159-.114.114.114,0,0,1,0-.151.188.188,0,0,1,.146-.045,1.488,1.488,0,0,1,.407.072c.025.008.05.018.075.028-.28-.233-.549-.527-.268-.631a.454.454,0,0,1,.292.024,3.045,3.045,0,0,1,.367.145,2.885,2.885,0,0,1,.454.269.344.344,0,0,1,.3-.271.585.585,0,0,1,.565.314.7.7,0,0,1,.125-.3.245.245,0,0,1,.2-.111.221.221,0,0,1,.176.134.5.5,0,0,1,.05.17l.016-.041a.376.376,0,0,1,.1-.158.165.165,0,0,1,.182-.033c.069.039.055.123.025.182l-.009.018c.1-.014.191-.021.269-.032q.605-.079,1.214-.135c.805-.074,1.613-.12,2.422-.144s1.607-.026,2.411-.013q.6.01,1.2.031c.334.011.669.018,1,.05a3.956,3.956,0,0,1,.565.092,24.887,24.887,0,0,1,3.542.268,22.869,22.869,0,0,1,2.264.448,9.227,9.227,0,0,1,2,.723c.24.125.611.288.63.567s-.32.487-.581.591a4.461,4.461,0,0,1-1.019.218q-.6.085-1.2.141a47.455,47.455,0,0,1-4.85.15c-1.353-.012-2.706-.043-4.059-.031a.23.23,0,0,1,.037.079.253.253,0,0,1-.138.277,1.159,1.159,0,0,1-.481.117,5.255,5.255,0,0,1-.663.02c-.444-.011-.888-.046-1.331-.072l-1.346-.08-1.333-.079a1.3,1.3,0,0,0,.166-.146.781.781,0,0,0,.245-.442.289.289,0,0,0-.271-.3.731.731,0,0,0-.5.225,3.018,3.018,0,0,0-.341.35,1.011,1.011,0,0,0-.063-.216c-.059-.146-.179-.375-.37-.35s-.279.261-.305.45a2.8,2.8,0,0,0-.154-.237,2.161,2.161,0,0,0-.291-.345.45.45,0,0,0-.3-.154c-.139.009-.2.159-.212.279a1.345,1.345,0,0,0,.058.437,1.541,1.541,0,0,0-.247-.3,1.569,1.569,0,0,0-.179-.133,1.068,1.068,0,0,0-.191-.1.3.3,0,0,0-.364.049.438.438,0,0,0-.048.353,1.569,1.569,0,0,0,.038.157,1.646,1.646,0,0,0-.224-.282.634.634,0,0,0-.437-.212c-.126,0-.249.062-.254.2a.619.619,0,0,0,.1.311l-2.152-.107c-.367-.018-1.258-.1-1.581-.137C571.163,1752.219,570.069,1751.619,573.395,1751.491Z" transform="translate(-560.102 -1710.683)" fill="#78a13d"/>
  <path id="Path_2785" data-name="Path 2785" d="M811.773,1787.3c0,.231,1.728.276,3.87.276s3.885-.045,3.885-.276-1.733-.238-3.874-.238S811.773,1787.069,811.773,1787.3Z" transform="translate(-794.991 -1747.468)" fill="#6a516b" opacity="0.46"/>
  <path id="Path_2786" data-name="Path 2786" d="M1283.657,191.935a1.4,1.4,0,0,1,.159-.27,1.843,1.843,0,0,1,.99-.653.888.888,0,0,1,.625.031,1.9,1.9,0,0,1,.448.425c.072.072.181.221.282.245a.515.515,0,0,0,.337-.056.809.809,0,0,1,.276-.119.617.617,0,0,1,.308.03,1.7,1.7,0,0,1,.42.384,1.1,1.1,0,0,0-.462-.467c-.3-.129-.594.2-.9.06a.741.741,0,0,1-.276-.3,1.067,1.067,0,0,0-.336-.341.947.947,0,0,0-.894-.037c-.064.032-.122-.065-.057-.1a1.056,1.056,0,0,1,.81-.053,1.027,1.027,0,0,1,.355.206,2.289,2.289,0,0,1,.3.386.356.356,0,0,0,.177.144.451.451,0,0,0,.253-.016,1.139,1.139,0,0,1,.467-.1c.311.04.513.334.668.577a1.926,1.926,0,0,0,.747.831l.007,0a.778.778,0,0,0,.136.007c.086,0,.283.234.29.38a1.473,1.473,0,0,1-.018.406.835.835,0,0,1-.012.109.688.688,0,0,1-.14.32.853.853,0,0,1-.3.215,1.685,1.685,0,0,1-.729.194.691.691,0,0,1-.33-.085.871.871,0,0,1-.245-.226.664.664,0,0,0-.215-.209c-.114-.051-.234.023-.336.069a4.053,4.053,0,0,1-.759.256,2.194,2.194,0,0,1-1.452-.131,1.471,1.471,0,0,1-.822-1.019A1.523,1.523,0,0,1,1283.657,191.935Z" transform="translate(-1255.182 -189.794)" fill="#86282c"/>
  <g id="Group_2420" data-name="Group 2420" transform="translate(0 1.368)">
    <g id="Group_2416" data-name="Group 2416" transform="translate(0 13.622)">
      <path id="Path_2787" data-name="Path 2787" d="M119.957,773.779a5.327,5.327,0,0,0,.4.982,5.487,5.487,0,0,0,2.408,2.354l-.457.04c-.056,0-.115.071-.073.127a2.55,2.55,0,0,0,.616.582,3.206,3.206,0,0,0,.932.424c-.217.03-.435.057-.653.079-.067.007-.119.09-.06.144a2.355,2.355,0,0,0,1.313.505,7.068,7.068,0,0,0,2.766-.239,12.438,12.438,0,0,0,1.326-.447,5.755,5.755,0,0,0,.792-.158l-.009.005-.263.16-.538.327-1.088.661a.085.085,0,0,0,.043.158,7.391,7.391,0,0,0,1.227-.147c.725-.143,1.438-.352,2.15-.545q.759-.206,1.515-.417a2.218,2.218,0,0,0-.219.483.085.085,0,0,0,.124.1c.324-.179.638-.376.944-.584.875-.594,1.7-1.271,2.621-1.8a1.832,1.832,0,0,0-.149.222.085.085,0,0,0,.116.116,4.66,4.66,0,0,1,.762-.288,15.15,15.15,0,0,1,3.005.126.408.408,0,0,0,.107-.454,1.281,1.281,0,0,0-.571-.717,5.812,5.812,0,0,0-.911-1.06,6.207,6.207,0,0,0-5.06-1.563c-.1.016-.063.157.022.166a.448.448,0,0,1,.311.185,10.754,10.754,0,0,1-4.04-.474.085.085,0,0,0-.082.141l.7.66a3.221,3.221,0,0,1-1.524,0c-.5-.1-.985-.253-1.482-.36a9.3,9.3,0,0,0-4.541.159.086.086,0,0,0-.02.154l.488.312a4.609,4.609,0,0,1-2.841-.221C120,773.65,119.941,773.723,119.957,773.779Z" transform="translate(-119.955 -772.828)" fill="#37251d"/>
      <path id="Path_2788" data-name="Path 2788" d="M772.561,865.535l.336-.325a.428.428,0,0,1-.112-.106.084.084,0,0,1,.013-.1,3.694,3.694,0,0,1,1.505-.791.085.085,0,0,1,.045.163,3.511,3.511,0,0,0-1.363.693.255.255,0,0,0,.088.032.085.085,0,0,1,.037.141l-.43.416C772.6,865.73,772.482,865.611,772.561,865.535Z" transform="translate(-756.705 -861.991)" fill="#493931"/>
      <path id="Path_2789" data-name="Path 2789" d="M517.867,827.295a18.785,18.785,0,0,1,2.449-1.866q.373-.229.764-.425c.1-.048.183.1.085.146a13.413,13.413,0,0,0-2.52,1.705c-.161.133-.32.268-.478.4l.767-.035.49-.022c.109-.005.248.006.28.134a.087.087,0,0,1-.039.1,8.749,8.749,0,0,0-1.139.9,3.274,3.274,0,0,0,.532.006c.235-.012.47-.028.705-.043l1.418-.087a.085.085,0,0,1,.073.127l-.665.876c-.065.085-.212,0-.146-.085l.56-.738-1.268.078a5.45,5.45,0,0,1-1.415,0,.085.085,0,0,1-.037-.141,8.995,8.995,0,0,1,1.179-.959c-.088,0-.222.015-.249.016l-.42.019-.867.039A.085.085,0,0,1,517.867,827.295Z" transform="translate(-508.19 -823.728)" fill="#493931"/>
      <path id="Path_2790" data-name="Path 2790" d="M241.367,815.087a4.56,4.56,0,0,0,1.315.518.085.085,0,0,1,.02.154,4.879,4.879,0,0,1-.847.278,5.833,5.833,0,0,0,1.335.8,7.659,7.659,0,0,0,1.749.494,9,9,0,0,0,1.065.114c.108.005.109.174,0,.169a7.748,7.748,0,0,1-3.586-.983,6.075,6.075,0,0,1-.806-.578.085.085,0,0,1,.037-.141,7.1,7.1,0,0,0,.743-.209,4.719,4.719,0,0,1-1.109-.473A.085.085,0,0,1,241.367,815.087Z" transform="translate(-238.299 -814.05)" fill="#493931"/>
      <path id="Path_2791" data-name="Path 2791" d="M242.472,936.921a17.071,17.071,0,0,0,1.992-.347c.1-.039.146.124.045.163a8.863,8.863,0,0,1-1.729.292,8.523,8.523,0,0,0,2.3.4.086.086,0,0,1,.073.127c-.051.119-.1.241-.137.364l2.317-.392c.106-.018.152.145.045.163l-2.461.416a.086.086,0,0,1-.1-.1c.042-.141.09-.279.145-.415a7.561,7.561,0,0,1-2.5-.515A.085.085,0,0,1,242.472,936.921Z" transform="translate(-239.44 -932.595)" fill="#493931"/>
      <path id="Path_2792" data-name="Path 2792" d="M412.328,833.639a1.779,1.779,0,0,0,1.149.254,9.251,9.251,0,0,0,1.424-.18c.106-.021.152.141.045.163a9.394,9.394,0,0,1-1.492.187,2.408,2.408,0,0,1-.856-.1,2.5,2.5,0,0,0,1.42.745c.107.017.062.18-.045.163a2.654,2.654,0,0,1-1.761-1.12C412.166,833.687,412.26,833.589,412.328,833.639Z" transform="translate(-405.111 -832.151)" fill="#493931"/>
      <path id="Path_2793" data-name="Path 2793" d="M528.143,803.423a2.473,2.473,0,0,0,.829.482c.1.035.058.2-.045.163a2.687,2.687,0,0,1-.9-.525C527.942,803.47,528.062,803.351,528.143,803.423Z" transform="translate(-518.098 -802.659)" fill="#493931"/>
    </g>
    <path id="Path_2794" data-name="Path 2794" d="M1899.657,573.377s.065-.1-.381-.293-2.41-1.073-2.474-1.055-.164.176-.123.24,2.292,1.026,2.463,1.114A.946.946,0,0,0,1899.657,573.377Z" transform="translate(-1853.569 -563.278)" fill="#378a83"/>
    <path id="Path_2795" data-name="Path 2795" d="M2150.036,410.515a.126.126,0,0,0,.066.06.071.071,0,0,0,.082.021,1.73,1.73,0,0,0,.646-.406,2.383,2.383,0,0,0,.639-1.31,3.349,3.349,0,0,0-.082-1.62.086.086,0,0,0-.124-.051,1.288,1.288,0,0,0-.429.634,15.464,15.464,0,0,0-.536,1.52c-.079.259-.166.518-.228.782-.016.068-.029.137-.039.207A.278.278,0,0,0,2150.036,410.515Z" transform="translate(-2100.774 -402.445)" fill="#37251d"/>
    <path id="Path_2796" data-name="Path 2796" d="M2020.511,1050.172a2.391,2.391,0,0,1,.216.2c.115.122.22.253.328.381.186.222.371.444.575.649a2.858,2.858,0,0,0,.085-.312,2.635,2.635,0,0,0,.034-.751c-.017-.214-.043-.427-.073-.639a.641.641,0,0,1,.11.129c0-.02-.006-.04-.01-.059a1.193,1.193,0,0,0-.168-.415,2.354,2.354,0,0,0-.611-.614,2.78,2.78,0,0,0-.84-.415,1.688,1.688,0,0,0-.639-.068l.067.044c.083.4.153.805.208,1.211.009.063.018.125.027.188l.1.058A4.3,4.3,0,0,1,2020.511,1050.172Z" transform="translate(-1973.438 -1027.947)" fill="#69411d"/>
    <path id="Path_2797" data-name="Path 2797" d="M1928.374,992.447l.045.03a6.654,6.654,0,0,1,1.186-.066,10.529,10.529,0,0,1,1.539.174c.393.071.784.157,1.173.248-.223-.21-.455-.411-.689-.608q-.537-.451-1.087-.888a8.2,8.2,0,0,1-.985.141c-.4.035-.794.05-1.192.063a6.72,6.72,0,0,0-1.284.121,2.351,2.351,0,0,0-.539.192l.282-.056a2.755,2.755,0,0,1,.351-.065.459.459,0,0,1,.288.111l.3.2Z" transform="translate(-1882.715 -972.415)" fill="#69411d"/>
    <path id="Path_2798" data-name="Path 2798" d="M864.187,272.749a3.507,3.507,0,0,0-2.128.1l-.19-.612a2.024,2.024,0,0,0,.907-.614c.366-.393.709-.809,1.061-1.213a.086.086,0,0,0-.036-.142,2.365,2.365,0,0,0-.871-.12,2.817,2.817,0,0,0-1.668.742,3.05,3.05,0,0,0-1.157-.99,5.357,5.357,0,0,0-3.144-.591,6.682,6.682,0,0,0-2.967,1.2.083.083,0,0,0-.036.055l-.128.086a18.194,18.194,0,0,0-2.4,2.052c-.756.753-1.47,1.548-2.189,2.337s-1.445,1.573-2.223,2.3a23.8,23.8,0,0,1-5.331,3.776c-1.912.773-4.04.755-6.055,1.067-1.906.295-3.937.971-5.091,2.623-1.192,1.707-1.069,3.936-.6,5.865.136.558.3,1.109.468,1.658s.365,1.1.486,1.661a2.294,2.294,0,0,1-.138,1.538,3.336,3.336,0,0,1-.881,1.051c-.134.112-.275.216-.418.315a1.119,1.119,0,0,1,.415.172c.05.038.118.081.141.143a.23.23,0,0,1-.022.155c-.052.139-.1.282-.145.422a1.4,1.4,0,0,0-.107.479.2.2,0,0,0,.082.174.106.106,0,0,0,.075,0,.244.244,0,0,1,.108,0,.513.513,0,0,1,.185.063.58.58,0,0,1,.125.167,2.942,2.942,0,0,0,.246.39.241.241,0,0,0,.157.092.306.306,0,0,0,.21-.1.655.655,0,0,0,.13-.246.325.325,0,0,1,.183-.188c.081-.03.172-.017.255-.041a.318.318,0,0,0,.181-.125,1.018,1.018,0,0,0,.13-.455,3.289,3.289,0,0,1,.073-.49,1.175,1.175,0,0,1,.247-.422c.088-.1.219-.231.368-.208a.839.839,0,0,1,.37.215c.134.11.258.231.393.339a1.319,1.319,0,0,0,.67.255l.242-.058a7,7,0,0,0,2.416-1.021,9.945,9.945,0,0,0,1.121-.979,8.725,8.725,0,0,0,.888-1.062,11.86,11.86,0,0,0,1.259-2.307c.87-.03,1.74-.063,2.605-.152a13.717,13.717,0,0,0,2.354-.431,12.126,12.126,0,0,0,2.185-.887c.359-.184.712-.379,1.063-.58a11.015,11.015,0,0,0,1.006-.626,9.44,9.44,0,0,0,1.564-1.539l.02,0q.179.012.359.016a13.7,13.7,0,0,0,2.851-.32c.472-.091.944-.186,1.415-.28l.624-.124a2.423,2.423,0,0,1,.813-.3,8.215,8.215,0,0,1,1.265-.1c.4-.013.806-.03,1.207-.069a7.936,7.936,0,0,0,.837-.123q-.029-.179-.058-.359a2.313,2.313,0,0,0-.189-.68,1.756,1.756,0,0,0-.9-.754c-.431-.191-.885-.335-1.331-.487q-1.3-.44-2.618-.8l.008-.033a6.966,6.966,0,0,0-.479-4.513l0,0c.151-.319.3-.638.466-.952a9.2,9.2,0,0,1,1.063-1.674,3.65,3.65,0,0,1,1.3-1.08c.058.147.128.288.193.432a4.085,4.085,0,0,0,1.2,1.675.821.821,0,0,1,.3-.093,1.842,1.842,0,0,1,.471,0,3.905,3.905,0,0,0,.594.061.724.724,0,0,0,.326-.085,3.215,3.215,0,0,1,.295-.159,2.862,2.862,0,0,1,.691-.127,2.076,2.076,0,0,0,.289-.055.242.242,0,0,0,.183-.178,1.191,1.191,0,0,0,.026-.358c0-.105-.01-.21-.01-.315a.794.794,0,0,1,.09-.467.3.3,0,0,1,.236-.121,1.061,1.061,0,0,1,.113-.45c.082-.143.228-.245.265-.413a1.208,1.208,0,0,0-.066-.533c-.042-.167-.09-.332-.14-.5l.012,0a1.867,1.867,0,0,0,.9-.294q.481-.249.94-.538C864.231,272.865,864.249,272.776,864.187,272.749Z" transform="translate(-812.243 -267.865)" fill="#69411d"/>
    <path id="Path_2799" data-name="Path 2799" d="M1316.531,525.147a26.715,26.715,0,0,1,2.923,2.011,8,8,0,0,1-.538,3.209,8.793,8.793,0,0,1-1.718.58l.124-3.5s-1.221-1.553-1.387-1.842S1316.531,525.147,1316.531,525.147Z" transform="translate(-1286.899 -517.534)" fill="#cddced"/>
    <g id="Group_2417" data-name="Group 2417" transform="translate(32.752 0)">
      <path id="Path_2800" data-name="Path 2800" d="M1572,487.783a14.505,14.505,0,0,0-2.167-.364c-.211.077.652.4,1.17.652S1572,487.783,1572,487.783Z" transform="translate(-1567.38 -480.712)" fill="#378a83"/>
      <path id="Path_2801" data-name="Path 2801" d="M1470.207,222.942a12.175,12.175,0,0,1,1.338-.854c.4-.232.8-.467,1.181-.738a10.652,10.652,0,0,0,1.049-.867,23.684,23.684,0,0,0,1.678-1.787,5.7,5.7,0,0,0,1.008-.609,14.438,14.438,0,0,0,1.923-1.664c.292-.3.564-.62.839-.935.163-.187.329-.37.507-.543a8.95,8.95,0,0,1,1.372-.649c.432-.163.873-.3,1.316-.428s.9-.263,1.363-.361a2.1,2.1,0,0,1,1.38.209,2.135,2.135,0,0,1,.536.408c.174.174.341.355.511.533a.089.089,0,0,0,.05.024.071.071,0,0,0,.08.019.647.647,0,0,0,.364-.651,1.94,1.94,0,0,0-.774-1.409,7.784,7.784,0,0,1-1.277-1.137.085.085,0,0,0-.157.043,1.245,1.245,0,0,0,.1.606c-.626-.259-1.238-.55-1.85-.841-.068-.032-.17.04-.116.116a2.658,2.658,0,0,0,.514.533,5.147,5.147,0,0,0-1.014-.264,6.15,6.15,0,0,0-1.853.121c-.079.014-.082.151,0,.163a1.718,1.718,0,0,1,.673.246c-.22.019-.441.037-.661.053q-1.635.118-3.275.117a.085.085,0,0,0-.06.144,2.629,2.629,0,0,0,.938.592,1.708,1.708,0,0,0-.312.082c-.412.151-.78.405-1.177.589a7.374,7.374,0,0,1-1.264.447.085.085,0,0,0-.02.154,2.927,2.927,0,0,0,.511.18,5.148,5.148,0,0,1-.486.211q-.152.057-.307.1a2.857,2.857,0,0,0-.292.094.126.126,0,0,0-.06.206.7.7,0,0,0,.2.158,1.786,1.786,0,0,0,.5.156,2.6,2.6,0,0,0-.8.335.085.085,0,0,0,.043.158,3.559,3.559,0,0,1,.484.087,16.788,16.788,0,0,0-1.781.85.086.086,0,0,0,.02.154,10.519,10.519,0,0,0,1.042.228,13.187,13.187,0,0,1-1.362.364.085.085,0,0,0,0,.163,5.9,5.9,0,0,0,1.012.168,1.724,1.724,0,0,1-.578.394,8.737,8.737,0,0,0-1.507.934,8.508,8.508,0,0,1-1.391,1.038c-.094.046-.021.167.065.154a8.69,8.69,0,0,1,1.16-.089,4.27,4.27,0,0,1-.641,1.108l-.865,1.265C1470.045,222.894,1470.139,222.994,1470.207,222.942Z" transform="translate(-1470.079 -211.302)" fill="#37251d"/>
      <path id="Path_2802" data-name="Path 2802" d="M2065.58,247.131a.087.087,0,0,1,.1.059,1.537,1.537,0,0,0,.311.527.086.086,0,0,1,0,.12.086.086,0,0,1-.12,0,1.719,1.719,0,0,1-.354-.6A.085.085,0,0,1,2065.58,247.131Z" transform="translate(-2051.073 -246.259)" fill="#493931"/>
      <path id="Path_2803" data-name="Path 2803" d="M1799.3,241.647a6.284,6.284,0,0,1,2.712-.91c.213-.031.426-.057.64-.083a.961.961,0,0,1-.154-.222.086.086,0,0,1,.073-.127,4.053,4.053,0,0,1,1.858.228c.1.038.057.2-.045.163a3.939,3.939,0,0,0-1.672-.235.8.8,0,0,0,.17.182.085.085,0,0,1-.043.158,9.547,9.547,0,0,0-2.757.6,4.336,4.336,0,0,0-.526.276l.569.126c.106.024.061.187-.045.163l-.761-.169A.086.086,0,0,1,1799.3,241.647Z" transform="translate(-1791.279 -239.577)" fill="#493931"/>
      <path id="Path_2804" data-name="Path 2804" d="M1658.264,332.079a10.421,10.421,0,0,0,1.774-1.258,2.853,2.853,0,0,1-.928-.186.085.085,0,0,1,0-.163q.943-.326,1.873-.688c.1-.039.146.124.045.163q-.812.316-1.634.6a2.727,2.727,0,0,0,.865.1.085.085,0,0,1,.06.144,10.626,10.626,0,0,1-1.79,1.324,1.018,1.018,0,0,0,.364-.011c.106-.023.151.14.045.163a1.208,1.208,0,0,1-.655-.039A.086.086,0,0,1,1658.264,332.079Z" transform="translate(-1653.659 -326.904)" fill="#493931"/>
    </g>
    <path id="Path_2805" data-name="Path 2805" d="M2009.1,604.467a.691.691,0,0,1,.769.294.088.088,0,0,1,0,.12.085.085,0,0,1-.12,0,.59.59,0,0,0-.507-.278.478.478,0,0,0-.375.407.569.569,0,0,0,.183.563.477.477,0,0,0,.5.046.482.482,0,0,0,.24-.5c-.021-.106.142-.152.163-.045a.655.655,0,0,1-.238.639.634.634,0,0,1-.682.047A.743.743,0,0,1,2009.1,604.467Z" transform="translate(-1962.869 -594.894)" fill="#899090"/>
    <path id="Path_2806" data-name="Path 2806" d="M904.616,1401.289a.594.594,0,0,1,0-.2q.013-.125.022-.249.018-.242.023-.485c0-.078,0-.156,0-.234a.416.416,0,0,0-.036-.207.346.346,0,0,0-.2-.131c-.089-.031-.18-.055-.266-.094a.386.386,0,0,1-.184-.156.4.4,0,0,1,0-.331c.035-.1.1-.222.009-.318a1.346,1.346,0,0,0-.353-.217c-.528-.291-1.128-.618-1.657-.909-.018-.078-.148-.228-.157-.306-.018-.162-.057-.322-.081-.483a5.27,5.27,0,0,1-.021-1.04,1.94,1.94,0,0,1,.264-.874,2.123,2.123,0,0,1,.635-.575,1.657,1.657,0,0,1,.357-.2.572.572,0,0,1,.321-.041,1.159,1.159,0,0,0-.03.144.154.154,0,0,0,.008.091c.023.043.077.043.12.044a.792.792,0,0,1,.237.029c.018.006.041.017.044.031a.163.163,0,0,1-.018.074.605.605,0,0,0-.038.264.029.029,0,0,0,.028.028,2.389,2.389,0,0,1,.367-.008.684.684,0,0,0-.077.21.029.029,0,0,0,.027.036,4.39,4.39,0,0,0,.572-.008,7.393,7.393,0,0,0,1.178-.193,9.384,9.384,0,0,1-1.052.314l-.626.15-.3.072a1.343,1.343,0,0,0-.282.086.572.572,0,0,0-.213.727,1.378,1.378,0,0,0,.7.657c.362.2,3.306,1.886,3.615,2.481a8.067,8.067,0,0,1-.1,2.492.086.086,0,0,1-.107.082,18.535,18.535,0,0,1-2.458-.5C904.781,1401.491,904.648,1401.421,904.616,1401.289Z" transform="translate(-882.74 -1365.538)" fill="#e5edf6"/>
    <path id="Path_2807" data-name="Path 2807" d="M802.349,1406.385a1.141,1.141,0,0,1,.455-.418q.119-.078.236-.161a.541.541,0,0,0,.172.089,1.822,1.822,0,0,0,.291.063c.115.019.23.036.345.058a.669.669,0,0,1-.082.21c-.087.162-.194.313-.266.482a.417.417,0,0,0,.014.436.028.028,0,0,0,.034,0,1.04,1.04,0,0,1,.312-.163,1.737,1.737,0,0,0,.441.888.029.029,0,0,0,.034,0,.722.722,0,0,0,.207-.346.447.447,0,0,1,.245-.295.72.72,0,0,1,.042.1c0,.008,0,.017,0,.025a4.9,4.9,0,0,0,.031.575c.01.093.023.186.036.279a1.615,1.615,0,0,0,.014.258c.015.094.03.188.046.282.005.059.011.118.019.177.005.041.012.083.02.124l-.06-.033.307,1.243.215.867c.035.142.066.285.106.425a.158.158,0,0,0,.1.118,1.319,1.319,0,0,0,.182.061,3.911,3.911,0,0,1,1.589.791,6.836,6.836,0,0,1,.383,2.326.652.652,0,0,1-.011.352c-.063.122-.191.106-.308.1l-.445-.039-.89-.077-.9-.079a1.107,1.107,0,0,1-.372-.058.271.271,0,0,1-.146-.28c.01-.139.043-.278.067-.415l.074-.438c.023-.135.054-.272.064-.409a.354.354,0,0,0-.1-.321.657.657,0,0,0-.286-.1,3.25,3.25,0,0,1-.344-.076,1.017,1.017,0,0,1-.51-.242c-.16-.143-.306-.393-.158-.59a.851.851,0,0,0,.024-.713c-.042-.143-.641-2.485-.915-3.468l-.234-.839A1.112,1.112,0,0,1,802.349,1406.385Z" transform="translate(-785.747 -1376.829)" fill="#e5edf6"/>
    <path id="Path_2808" data-name="Path 2808" d="M2046.6,480.379a.984.984,0,0,1-.646-.627.466.466,0,0,1-.519-.247.917.917,0,0,1,.077-.807.285.285,0,0,0,.044-.186.308.308,0,0,0-.1-.137c-.095-.087-.2-.158-.3-.245l-.083-.078c.04-.039.081-.076.124-.111a2.441,2.441,0,0,1,1.857-.292,4.575,4.575,0,0,0,.528.026c.115,0,.329.022.349-.132a.539.539,0,0,0-.142-.348.68.68,0,0,1-.121-.429c.011-.172.042-.345.068-.516s.056-.353.089-.529.065-.342.1-.512a4.29,4.29,0,0,1,.12-.513c.04-.114.169-.217.287-.133a.089.089,0,0,1,.039.1,4.073,4.073,0,0,0-.088,1.147l.012.01c-.006.056-.01.112-.014.167-.011.188-.017.377-.019.566s0,.377,0,.566a2.554,2.554,0,0,0,.059.536,5.576,5.576,0,0,1,.333,1,.686.686,0,0,1-.131.462,2.239,2.239,0,0,1-.36.314c-.242.2-.384.5-.613.712A1,1,0,0,1,2046.6,480.379Z" transform="translate(-1998.376 -468.146)" fill="#e5edf6"/>
    <path id="Path_2809" data-name="Path 2809" d="M1973.6,1072.25c.193-.106.4-.17.6-.26a1.527,1.527,0,0,0,.274-.153c.079-.057.174-.14.167-.248s-.069-.2-.058-.3a.3.3,0,0,1,.151-.215.471.471,0,0,0,.1-.074.206.206,0,0,0,.034-.152c-.007-.127-.029-.255-.046-.381q-.05-.37-.117-.738c.4-.052.182.426.778.547a1.446,1.446,0,0,1,.146.043.243.243,0,0,1,.135.118,3.672,3.672,0,0,1,.16.383c.049.106.14.246.273.245.068,0,.133-.042.2-.013a.35.35,0,0,1,.132.128,1.082,1.082,0,0,1,.147.377,2.218,2.218,0,0,1,.048.44c0,.049,0,.1,0,.146a4.364,4.364,0,0,1-.207.6c-.028.068-.057.136-.088.2a3.14,3.14,0,0,1-1.678,1.679.087.087,0,0,1-.116-.03c-.107-.141-.69-.96-.805-1.162a4.442,4.442,0,0,1-.3-.625,1.171,1.171,0,0,1-.1-.333C1973.431,1072.355,1973.512,1072.3,1973.6,1072.25Z" transform="translate(-1928.474 -1048.899)" fill="#e5edf6"/>
    <path id="Path_2810" data-name="Path 2810" d="M1905.7,960.917c.113-.076.218-.162.329-.241a.942.942,0,0,1,.268-.147c.073-.021.148-.038.221-.063a.353.353,0,0,0,.171-.1.141.141,0,0,0,.008-.152.782.782,0,0,1,.376-.1,2.723,2.723,0,0,1,.749.144,1.51,1.51,0,0,0,.713.07c.019,0-.024-.179-.039-.248.885.06.615-.4.577-.494.109.066.258.194.365.264.333.22.572.416.916.691q.433.348.858.7a9.661,9.661,0,0,1,1.622,1.641,4.66,4.66,0,0,1,.86,2.526,4.6,4.6,0,0,1-.487,1.767.086.086,0,0,1-.115.03,8.9,8.9,0,0,1-2.22-1.42.128.128,0,0,1-.009-.15c.1-.214.191-.432.277-.651a6.719,6.719,0,0,0,.238-.658c.041-.148-.066-.193-.188-.232a.94.94,0,0,1-.359-.159.348.348,0,0,1-.109-.2c-.016-.1,0-.195-.018-.29a.493.493,0,0,0-.165-.261l0,.024a1.887,1.887,0,0,0-.4-.315c-.179-.113-.352-.234-.528-.351-.136-.091-.276-.177-.416-.262-.244-.166-.5-.319-.749-.47l0-.024-.488-.322-.609-.4-.3-.2a.458.458,0,0,0-.287-.111,2.735,2.735,0,0,0-.351.064l-.359.071-.431.085Z" transform="translate(-1862.298 -941.432)" fill="#e5edf6"/>
    <path id="Path_2811" data-name="Path 2811" d="M2094.963,453.41a.578.578,0,0,1,.262.035.594.594,0,0,1,.43.312.747.747,0,0,1-.053.595.081.081,0,0,1-.125.028l-.011-.008a.083.083,0,0,1-.034-.007l-.056-.026a.451.451,0,0,1-.136-.066.9.9,0,0,1-.188-.186.627.627,0,0,1-.1-.192.937.937,0,0,1-.079-.259C2094.86,453.547,2094.85,453.432,2094.963,453.41Z" transform="translate(-2046.957 -447.532)" fill="#37251d"/>
    <path id="Path_2812" data-name="Path 2812" d="M2114.608,481.262a.063.063,0,0,1,.024-.021.094.094,0,0,1,.064-.008l.021.009a.083.083,0,0,1,.03.031l.008.02a.083.083,0,0,1,0,.044l0,.007a.087.087,0,0,1-.1.058l-.021-.009a.083.083,0,0,1-.03-.031l-.008-.02a.082.082,0,0,1,0-.044l0-.007A.059.059,0,0,1,2114.608,481.262Z" transform="translate(-2066.2 -474.682)" fill="#fff"/>
    <path id="Path_2813" data-name="Path 2813" d="M2134.924,460.424a.085.085,0,0,1,.1.061,1.5,1.5,0,0,1-.078.721.087.087,0,0,1-.1.058.085.085,0,0,1-.059-.1,1.322,1.322,0,0,0,.078-.633A.087.087,0,0,1,2134.924,460.424Z" transform="translate(-2085.905 -454.379)" fill="#37251d"/>
    <path id="Path_2814" data-name="Path 2814" d="M2129.481,633.35a.268.268,0,0,0,.1.157.139.139,0,0,0,.205-.073.215.215,0,0,0,.015-.051v0l.073-.235a.452.452,0,0,0,.041-.229.118.118,0,0,0-.094-.094.165.165,0,0,0-.1.021.474.474,0,0,0-.138.145A.445.445,0,0,0,2129.481,633.35Z" transform="translate(-2080.725 -622.594)" fill="#cddced"/>
    <path id="Path_2815" data-name="Path 2815" d="M2151.876,631.689a.085.085,0,0,1,.1.061.925.925,0,0,1-.132.644.086.086,0,0,1-.116.028.085.085,0,0,1-.028-.116.746.746,0,0,0,.113-.514A.087.087,0,0,1,2151.876,631.689Z" transform="translate(-2102.403 -621.489)" fill="#cddced"/>
    <path id="Path_2816" data-name="Path 2816" d="M900.079,1025.02c0,.08-.171.1-.173-.018a3.964,3.964,0,0,1,.074-.553,1.955,1.955,0,0,1,.844-1.033c.365-.282.757-.525,1.14-.78a8.227,8.227,0,0,0,1.042-.8,7.18,7.18,0,0,0,1.52-2.013,6.981,6.981,0,0,0,.734-2.582,7.164,7.164,0,0,0-.328-2.818q-.055-.168-.119-.333c-.039-.1.124-.146.163-.045a7.284,7.284,0,0,1,.474,2.8,7.207,7.207,0,0,1-.592,2.662,7.315,7.315,0,0,1-1.406,2.12,7.209,7.209,0,0,1-.954.84c-.372.274-.768.514-1.15.774-.187.128-.372.26-.548.4a3.117,3.117,0,0,0-.5.476,1.294,1.294,0,0,0-.209.684Q900.086,1024.914,900.079,1025.02Z" transform="translate(-880.986 -994.516)" fill="#5d320b"/>
    <path id="Path_2817" data-name="Path 2817" d="M1767.835,852.31a3.878,3.878,0,0,0,1.952,1.2c.18.042,1.579.283,2.354.4.4.062.8.125,1.187.216a1.484,1.484,0,0,1,.451.186,4.494,4.494,0,0,1,.47.338l.107.081c.194.192.129.193-.031.084a2.669,2.669,0,0,0-.941-.5,11.045,11.045,0,0,0-1.167-.223c-.4-.063-.792-.118-1.187-.179-.449-.069-1.3-.251-1.386-.272a3.938,3.938,0,0,1-1.929-1.212C1767.643,852.349,1767.762,852.229,1767.835,852.31Z" transform="translate(-1727.721 -836.734)" fill="#5d320b"/>
    <path id="Path_2818" data-name="Path 2818" d="M1599.861,945.974a4.806,4.806,0,0,0,2.157,2.066c.1.047.012.193-.085.146a5.007,5.007,0,0,1-1.849-1.542,4.866,4.866,0,0,1-.369-.585C1599.664,945.964,1599.81,945.878,1599.861,945.974Z" transform="translate(-1563.808 -928.111)" fill="#5d320b"/>
    <path id="Path_2819" data-name="Path 2819" d="M1952.236,400.353c.033-.1.2-.059.163.045a3.491,3.491,0,0,0,.191,2.576c.048.1-.1.183-.146.085A3.665,3.665,0,0,1,1952.236,400.353Z" transform="translate(-1907.625 -395.71)" fill="#5d320b"/>
    <path id="Path_2820" data-name="Path 2820" d="M1810.594,634.724a.085.085,0,0,1,.116-.03,6.45,6.45,0,0,1,1.074,1.029c.069.083-.05.2-.119.12a6.287,6.287,0,0,0-1.04-1A.087.087,0,0,1,1810.594,634.724Z" transform="translate(-1769.571 -624.411)" fill="#5d320b"/>
    <path id="Path_2821" data-name="Path 2821" d="M1200.9,1205.547a3.575,3.575,0,0,0,1.243.05c.046-.006.084.043.084.084a.086.086,0,0,1-.084.084,3.7,3.7,0,0,1-1.288-.056C1200.751,1205.687,1200.8,1205.524,1200.9,1205.547Z" transform="translate(-1174.578 -1181.426)" fill="#5d320b"/>
    <path id="Path_2822" data-name="Path 2822" d="M2077.125,621.667a1.456,1.456,0,0,0,.085-.346.727.727,0,0,0,0-.184.5.5,0,0,0-.044-.145c-.075-.008-.122-.116-.039-.153.148-.067.217.118.242.231a1,1,0,0,1-.015.437,3.009,3.009,0,0,0-.229.926c.01.108-.16.108-.169,0A1.846,1.846,0,0,1,2077.125,621.667Z" transform="translate(-2029.474 -610.89)" fill="#cddced"/>
    <path id="Path_2823" data-name="Path 2823" d="M2147.74,323.715q.4-.244.817-.452a1.073,1.073,0,0,1,.806-.145c.1.034.059.2-.045.163a1,1,0,0,0-.748.164q-.381.192-.744.415C2147.732,323.918,2147.647,323.772,2147.74,323.715Z" transform="translate(-2098.51 -320.373)" fill="#37251d"/>
    <path id="Path_2824" data-name="Path 2824" d="M1036.328,1623.818a13.486,13.486,0,0,0,2.586.153c0,.054,0,.11,0,.169a13.479,13.479,0,0,1-2.593-.152C1036.216,1623.97,1036.221,1623.8,1036.328,1623.818Z" transform="translate(-1014.017 -1589.551)" fill="#cddced"/>
    <path id="Path_2825" data-name="Path 2825" d="M926.328,1707.882a10.655,10.655,0,0,0,2.25.074q.014.082.027.167a10.867,10.867,0,0,1-2.322-.078C926.176,1708.029,926.222,1707.867,926.328,1707.882Z" transform="translate(-906.663 -1671.576)" fill="#cddced"/>
    <path id="Path_2826" data-name="Path 2826" d="M2018.647,1159.733q.608.918,1.3,1.779c-.038.042-.079.082-.12.122q-.7-.877-1.322-1.815C2018.441,1159.727,2018.587,1159.642,2018.647,1159.733Z" transform="translate(-1972.432 -1136.688)" fill="#cddced"/>
    <path id="Path_2827" data-name="Path 2827" d="M2149.619,1161.006c-.087-.064,0-.211.085-.146a7.4,7.4,0,0,0,2.031,1.057q-.006.087-.017.173A7.517,7.517,0,0,1,2149.619,1161.006Z" transform="translate(-2100.347 -1137.81)" fill="#cddced"/>
    <g id="Group_2418" data-name="Group 2418" transform="translate(22.658 8.63)">
      <path id="Path_2828" data-name="Path 2828" d="M1065.737,570.976a3.411,3.411,0,0,0-.031-2.795c-.567-1.116-.932-1.366-1.366-.932a8.246,8.246,0,0,1-3.478,2.515c-1.956.652-3.54.683-4.813-.311s-1.832-1.366-2.049-.994.714,4.068,1.18,4.751,1.4,1.987,4.347,1.428S1064.836,572.746,1065.737,570.976Z" transform="translate(-1053.967 -567.048)" fill="#61b5ae"/>
      <path id="Path_2829" data-name="Path 2829" d="M1128.167,658.569c.006-.108.175-.109.169,0a2.481,2.481,0,0,0,.918,1.987,3.525,3.525,0,0,0,2.315.747,6.869,6.869,0,0,0,2.628-.646,9.153,9.153,0,0,0,2.288-1.315,3.984,3.984,0,0,0,1.343-1.983c.025-.1.045-.191.062-.288s.181-.062.163.045a3.894,3.894,0,0,1-1.221,2.144,8.262,8.262,0,0,1-2.3,1.432,7.792,7.792,0,0,1-2.725.772,3.875,3.875,0,0,1-2.469-.63,2.744,2.744,0,0,1-1.168-1.967A2.2,2.2,0,0,1,1128.167,658.569Z" transform="translate(-1126.363 -654.827)" fill="#378a83"/>
      <path id="Path_2830" data-name="Path 2830" d="M1439.212,762.188a11.957,11.957,0,0,0,1,3.056,11.686,11.686,0,0,0,3.331,4.464s.1.026-.114.264-.731.712-1.016.712a10,10,0,0,1-2.506-2.544,25.008,25.008,0,0,1-2.05-4.556C1437.416,762.378,1439.212,762.188,1439.212,762.188Z" transform="translate(-1428.473 -757.454)" fill="#61b5ae"/>
      <path id="Path_2831" data-name="Path 2831" d="M1461.359,779.567a2.869,2.869,0,0,0,.833-.686.085.085,0,0,1,.119,0,.086.086,0,0,1,0,.12,3,3,0,0,1-.866.713C1461.349,779.765,1461.263,779.619,1461.359,779.567Z" transform="translate(-1451.436 -773.718)" fill="#378a83"/>
      <path id="Path_2832" data-name="Path 2832" d="M1524.351,961.148a2.675,2.675,0,0,1,.089.447,10.355,10.355,0,0,1-.045,2.115c-.134.462,1.468.355,1.468.355s-.034-1.872-.078-2.468a8.1,8.1,0,0,0-.213-1.239Z" transform="translate(-1512.94 -950.818)" fill="#61b5ae"/>
      <path id="Path_2833" data-name="Path 2833" d="M1497.352,917.565a2.839,2.839,0,0,1,.312-.283l.036-.03-.121-.233a.086.086,0,0,1,.03-.116.085.085,0,0,1,.116.03l.11.211c.049-.037.1-.074.152-.108a1.692,1.692,0,0,1,.378-.188c.124-.042.256-.064.345.053a1.4,1.4,0,0,1,.118.22l.125.25.25.5c.048.1-.1.183-.146.085l-.382-.761c-.029-.058-.055-.119-.088-.174s-.086-.038-.143-.02a1.429,1.429,0,0,0-.332.156c-.068.043-.134.09-.2.139l.131.252a.086.086,0,0,1-.03.116.085.085,0,0,1-.116-.03l-.12-.231c-.078.065-.153.132-.226.2a.483.483,0,0,0-.183.3.749.749,0,0,0,.094.366,5.118,5.118,0,0,0,.438.768c.062.09-.085.174-.146.085a5.071,5.071,0,0,1-.443-.779.954.954,0,0,1-.113-.428A.562.562,0,0,1,1497.352,917.565Z" transform="translate(-1486.447 -908.331)" fill="#edb140"/>
      <path id="Path_2834" data-name="Path 2834" d="M1500.192,896.093a.085.085,0,0,1,0,.169A.085.085,0,0,1,1500.192,896.093Z" transform="translate(-1489.288 -888.111)" fill="#378a83"/>
      <path id="Path_2835" data-name="Path 2835" d="M1487.1,865.454a.086.086,0,0,1,.022-.037l.017-.013a.085.085,0,0,1,.043-.012h.015a.063.063,0,0,1,.033.007.062.062,0,0,1,.027.018.063.063,0,0,1,.018.027.068.068,0,0,1,.007.033c0,.007,0,.015,0,.022a.086.086,0,0,1-.022.037l-.017.013a.084.084,0,0,1-.043.012h-.015a.064.064,0,0,1-.032-.007.062.062,0,0,1-.027-.017.063.063,0,0,1-.018-.027.062.062,0,0,1-.007-.033Z" transform="translate(-1476.591 -858.155)" fill="#378a83"/>
      <path id="Path_2836" data-name="Path 2836" d="M1473.6,830.452a.063.063,0,0,1,.017-.027l.017-.013a.084.084,0,0,1,.043-.011l.022,0a.083.083,0,0,1,.037.022l.015.015a.082.082,0,0,1,.017.092.064.064,0,0,1-.017.027l-.017.013a.083.083,0,0,1-.043.011l-.022,0a.084.084,0,0,1-.037-.022l-.015-.015a.064.064,0,0,1-.017-.027.062.062,0,0,1-.007-.033A.064.064,0,0,1,1473.6,830.452Z" transform="translate(-1463.411 -824.012)" fill="#378a83"/>
      <path id="Path_2837" data-name="Path 2837" d="M1579.418,981.534a8.715,8.715,0,0,1,.124,2.167v0a.081.081,0,0,1-.081.1.076.076,0,0,1-.074-.047.074.074,0,0,1-.015-.052,8.524,8.524,0,0,0-.118-2.122C1579.235,981.473,1579.4,981.427,1579.418,981.534Z" transform="translate(-1566.51 -971.42)" fill="#378a83"/>
    </g>
    <path id="Path_2838" data-name="Path 2838" d="M900.151,1475.8a10.881,10.881,0,0,0,.3,1.587.085.085,0,0,1-.163.045,11.183,11.183,0,0,1-.31-1.632C899.97,1475.693,900.139,1475.694,900.151,1475.8Z" transform="translate(-881.059 -1445.048)" fill="#cddced"/>
    <path id="Path_2839" data-name="Path 2839" d="M1971.044,317.787q.371-.574.766-1.131c.527-.746,1.081-1.474,1.643-2.194q.313-.4.63-.8a2.76,2.76,0,0,1,.338-.426.072.072,0,0,1,.115.016.766.766,0,0,1,.193.258c.041.106-.27.409-.343.518l-.482.72a10.276,10.276,0,0,0,1.81,1.033c.054.024,0,.3-.022.337a.087.087,0,0,1-.116.03c-.468-.225-1.7-.961-1.829-1.048q-.724.868-1.389,1.783a2.393,2.393,0,0,0,.106.362,16.344,16.344,0,0,0,1.07,2.373,3.9,3.9,0,0,1,1.042-.181,7,7,0,0,1,1.132.066c.059.022.033.158.051.2a.939.939,0,0,1,.027.36.222.222,0,0,0,.015.1c.026.061.031.155-.036.15a6.912,6.912,0,0,0-1.424.036,3.216,3.216,0,0,0-1.142.309,1.065,1.065,0,0,0-.425.4.083.083,0,0,1-.133.017c-.158-.166-.424-.3-.34-.572a.768.768,0,0,1,.246-.326,2.546,2.546,0,0,1,.341-.256c.074-.047.151-.09.229-.129a5.506,5.506,0,0,1-1.049-2.227c-.014-.053-.037-.122-.054-.2-.134.191-.267.382-.4.575-.2.293-.4.584-.576.887-.11.186-.333-.265-.333-.441A3.265,3.265,0,0,1,1971.044,317.787Z" transform="translate(-1925.815 -310.74)" fill="#61b5ae"/>
    <g id="Group_2419" data-name="Group 2419" transform="translate(47.255 2.73)">
      <path id="Path_2840" data-name="Path 2840" d="M2068.045,325.43a1.322,1.322,0,0,0,.661.985,5.414,5.414,0,0,0,1.062.579c.2.07.9.317,1.118.206.648-.335.549-1.408.274-2.078a.351.351,0,0,0-.06-.106,1.7,1.7,0,0,1-1.167.453,1.56,1.56,0,0,1-.187-.023,2.272,2.272,0,0,1-1.614-1.533.085.085,0,0,0-.166.022,2.006,2.006,0,0,0,.1.86,2.74,2.74,0,0,0,.777,1.133,2.524,2.524,0,0,1-.655-.559A.085.085,0,0,0,2068.045,325.43Z" transform="translate(-2067.955 -323.854)" fill="#37251d"/>
      <path id="Path_2841" data-name="Path 2841" d="M2102.158,408.577a.086.086,0,0,1,.119,0,4.655,4.655,0,0,0,1.121.66.087.087,0,0,1,.059.1.085.085,0,0,1-.1.059,4.934,4.934,0,0,1-1.2-.7A.085.085,0,0,1,2102.158,408.577Z" transform="translate(-2101.304 -406.499)" fill="#493931"/>
    </g>
  </g>
  <path id="Path_2842" data-name="Path 2842" d="M1444.393,518.007s-1.209.762-1.712.575.144-1.252.187-1.28.2.144.2.144-.374.59-.273.82,1.266-.4,1.438-.446S1444.393,518.007,1444.393,518.007Z" transform="translate(-1410.408 -508.508)" fill="#61b5ae"/>
  <path id="Path_2843" data-name="Path 2843" d="M1530.813,462.605a.552.552,0,0,0-.214-.088l-.3-.073-.628-.153a.055.055,0,0,0-.068.056h0a1.15,1.15,0,0,0-.162.126l-.008.007-.014.013a.8.8,0,0,0-.155.19,1.077,1.077,0,0,0-.067.116.054.054,0,0,0,.014.067.352.352,0,0,0,.038.167.973.973,0,0,0,.341.323.988.988,0,0,0,.444.176.575.575,0,0,0,.63-.356.253.253,0,0,0,.007-.095c0-.037-.039-.076,0-.1.023-.016.075-.01.1-.018a.178.178,0,0,0,.082-.046A.216.216,0,0,0,1530.813,462.605Z" transform="translate(-1495.005 -454.834)" fill="#cddced"/>
  <path id="Path_2844" data-name="Path 2844" d="M1491.534,479.318a6.419,6.419,0,0,0,.938.446c.142.054.333.155.488.1a.223.223,0,0,0,.147-.19.5.5,0,0,0,.162.017.216.216,0,0,0,.2-.152.264.264,0,0,0-.008-.146.5.5,0,0,0,.24-.013.23.23,0,0,0,.137-.21.288.288,0,0,0-.019-.112.639.639,0,0,0,.081.006c.122,0,.27-.061.238-.21-.029-.133-.178-.216-.277-.294l-.181-.143-.044-.038c0-.011,0-.022.005-.032a.47.47,0,0,0-.069-.381.479.479,0,0,0-.366-.127c-.152-.008-.539.011-.582.007-.09-.007-.137.08-.184.141l-.187.243-.75.972A.085.085,0,0,0,1491.534,479.318Z" transform="translate(-1458.22 -470.005)" fill="#e5edf6"/>
  <g id="Group_2421" data-name="Group 2421" transform="translate(33.276 0.767)">
    <path id="Path_2845" data-name="Path 2845" d="M1497.963,198.715a1.812,1.812,0,0,1-.227.793c-.211.332-.294.279-.4.5s-.024.722-.07.8-.306.039-.419.031-.343.223-.464.352a1.035,1.035,0,0,1-.722.366,2.052,2.052,0,0,1-1.244-.862,2.468,2.468,0,0,1-.5-1.811,2.561,2.561,0,0,1,1.261-1.865,2.264,2.264,0,0,1,2.175.408A1.822,1.822,0,0,1,1497.963,198.715Z" transform="translate(-1493.845 -196.628)" fill="#ec8b70"/>
    <path id="Path_2846" data-name="Path 2846" d="M1604.662,313.468a.14.14,0,0,1,.062.022.133.133,0,0,1,.036.032.157.157,0,0,1,.032.114.164.164,0,0,1-.013.049.178.178,0,0,1-.027.045.151.151,0,0,1-.053.041l-.007,0a.092.092,0,0,1-.026.013.132.132,0,0,1-.065.007.141.141,0,0,1-.1-.066.152.152,0,0,1-.018-.11.231.231,0,0,1,.026-.065.2.2,0,0,1,.035-.042A.154.154,0,0,1,1604.662,313.468Z" transform="translate(-1601.746 -310.388)" fill="#1a1a1a"/>
    <path id="Path_2847" data-name="Path 2847" d="M1608.22,297.24a.086.086,0,0,1,.1-.059,1.019,1.019,0,0,1,.511.337.086.086,0,0,1,0,.12.085.085,0,0,1-.119,0,.762.762,0,0,0-.1-.11.877.877,0,0,0-.332-.184A.086.086,0,0,1,1608.22,297.24Z" transform="translate(-1605.39 -294.494)" fill="#86282c"/>
    <path id="Path_2848" data-name="Path 2848" d="M1613.411,350.094l.012-.009a.06.06,0,0,1,.03-.008l.081.009a.067.067,0,0,1,.042.018.044.044,0,0,1,.012.019.045.045,0,0,1,.005.023.06.06,0,0,1-.018.042l-.012.009a.059.059,0,0,1-.03.008l-.081-.009a.067.067,0,0,1-.042-.018.044.044,0,0,1-.012-.019.044.044,0,0,1-.005-.023A.06.06,0,0,1,1613.411,350.094Z" transform="translate(-1610.441 -346.109)" fill="#e46f60"/>
    <path id="Path_2849" data-name="Path 2849" d="M1583,356.375a.892.892,0,0,1-.332-.214c-.161.163-.148.428,0,.494A2.513,2.513,0,0,0,1583,356.375Z" transform="translate(-1580.353 -352.046)" fill="#fff"/>
    <path id="Path_2850" data-name="Path 2850" d="M1495.906,188.729s.148.692-.393.587a2.879,2.879,0,0,1-1.292-.444c-.118-.059-.692.045-.716-.072s.052-.557-.247-.671a.514.514,0,0,0-.719.44.69.69,0,0,0,.143.619c.118.082-.177.188-.541.153s-.4-.271-.412-.341a3.144,3.144,0,0,1,.012-.977c.082-.541,1-1.612,1.871-1.471a1.582,1.582,0,0,1,1,.4c.165.071.541-.024.894.447S1496.153,188.493,1495.906,188.729Z" transform="translate(-1491.697 -186.539)" fill="#86282c"/>
  </g>
  <g id="Group_2422" data-name="Group 2422" transform="translate(33.647)">
    <path id="Path_2851" data-name="Path 2851" d="M1507,159c.033-.022.562-.738.562-.738s.121.11.551-.033a7.185,7.185,0,0,0,1.169-.631l-.706-.533-.217.362a.317.317,0,0,0-.141-.14l.2-.342c-.611-.464-1.156-.871-1.163-.9a2.251,2.251,0,0,1,3.237-.7c1.775,1.174.417,2.814.4,2.933s.437.7.377.8a2.612,2.612,0,0,1-.8-.38,2.737,2.737,0,0,1-.385-.5l-.632-.474a6.381,6.381,0,0,1-1.594.788.91.91,0,0,0-.661.683S1506.967,159.019,1507,159Z" transform="translate(-1506.997 -154.913)" fill="#1a1a1a"/>
    <path id="Path_2852" data-name="Path 2852" d="M1530.394,202.392c.792.6,1.593,1.147,2.431,1.681.234.149.474.289.72.417.064.033.007.131-.057.1a17.426,17.426,0,0,1-2.426-1.645l-.7-.531C1530.3,202.369,1530.336,202.349,1530.394,202.392Z" transform="translate(-1529.764 -201.217)" fill="#282828"/>
  </g>
  <path id="Path_2853" data-name="Path 2853" d="M1430.595,397.663a1.7,1.7,0,0,0-.187-.109l-.2-.119a14.924,14.924,0,0,1-1.79-1.263.059.059,0,0,0-.025-.012.05.05,0,0,0-.067-.047,1.306,1.306,0,0,0-.62.431,1.011,1.011,0,0,0-.185.774,1.746,1.746,0,0,0,.387.806,3.3,3.3,0,0,0,.615.626,1.03,1.03,0,0,0,.753.217.694.694,0,0,0,.347-.156.968.968,0,0,1,.186-.131,1.756,1.756,0,0,0,.191-.1,1.989,1.989,0,0,0,.532-.593C1430.587,397.9,1430.713,397.754,1430.595,397.663Z" transform="translate(-1395.786 -390.26)" fill="#be161e"/>
  <path id="Path_2854" data-name="Path 2854" d="M1226.386,290.967a1.869,1.869,0,0,1,.384-.671,7.28,7.28,0,0,1,3.51-2.206,4.335,4.335,0,0,1,1.86-.173,3.252,3.252,0,0,1,.671-.192,3.209,3.209,0,0,1,.825,1.228,3.759,3.759,0,0,1,.364,1.208c-.057.115-.748.173-.748.173s-.192.23-.479.518a4.012,4.012,0,0,0-.384.422,6.331,6.331,0,0,0,1.017.614,6.125,6.125,0,0,0,.7.279.136.136,0,0,1,.076.2,6.811,6.811,0,0,1-1.179,1.653,10.806,10.806,0,0,1-2.57-1.381c-.23-.192-.057.134-.518.288S1226.386,290.967,1226.386,290.967Z" transform="translate(-1199.546 -284.503)" fill="#ef414c"/>
  <g id="Group_2424" data-name="Group 2424" transform="translate(25.465 6.449)">
    <path id="Path_2855" data-name="Path 2855" d="M1170.952,437.963s-1.359.969-1.227,2.082a2.285,2.285,0,0,0,1.169,1.829c.379.26,2.791,1.312,3.266,1.571,0,0-.173.029-.23,1.079s.029,3.194-.029,3.841-.245,1.137-.115,1.41a5.8,5.8,0,0,0,2.719.575c.46-.115.1-.5-.173-.863s-.777-.82-.834-1.165a26.747,26.747,0,0,1,.561-4c.2-.734-.043-.7-.129-.676a8.929,8.929,0,0,0,.129-1.194c-.057-.647-2.143-2.172-2.143-2.172l.432-.5A7.788,7.788,0,0,0,1170.952,437.963Z" transform="translate(-1169.716 -437.546)" fill="#e5edf6"/>
    <path id="Path_2856" data-name="Path 2856" d="M1290.307,494.549q.735.456,1.447.947c.089.061,0,.208-.085.146q-.712-.491-1.447-.947C1290.13,494.638,1290.215,494.491,1290.307,494.549Z" transform="translate(-1287.26 -492.746)" fill="#cddced"/>
    <path id="Path_2857" data-name="Path 2857" d="M1221.855,422.736a13.424,13.424,0,0,0-1.765-1.247,3.935,3.935,0,0,0-1.765-.71,1,1,0,0,0-.2.412,6.689,6.689,0,0,1,1.368.532,22.25,22.25,0,0,1,2.025,1.376C1221.582,423.107,1221.879,422.764,1221.855,422.736Z" transform="translate(-1216.951 -420.766)" fill="#37251d"/>
    <path id="Path_2858" data-name="Path 2858" d="M1349.7,496.512c-.005-.021-.23-.19-.248-.172a6.084,6.084,0,0,0-.425.494c-.007.028.217.214.242.193A4.9,4.9,0,0,0,1349.7,496.512Z" transform="translate(-1344.679 -494.505)" fill="#edb140"/>
    <path id="Path_2859" data-name="Path 2859" d="M1274.983,441.633s-.352.555-.383.563-.1-.039-.141-.086a1.512,1.512,0,0,1,.4-.563C1274.905,441.563,1274.983,441.586,1274.983,441.633Z" transform="translate(-1271.916 -441.043)" fill="#cddced"/>
    <path id="Path_2860" data-name="Path 2860" d="M1344.594,651.736a.983.983,0,0,1,.312-.346.057.057,0,0,1,.077.02.058.058,0,0,1-.02.077l-.022.016-.011.008,0,0-.04.034a.913.913,0,0,0-.076.076l-.035.041,0,0-.009.011-.014.02a.919.919,0,0,0-.057.094.057.057,0,0,1-.077.02A.057.057,0,0,1,1344.594,651.736Z" transform="translate(-1340.345 -645.787)" fill="#cddced"/>
    <path id="Path_2861" data-name="Path 2861" d="M1260.485,472.952a.449.449,0,0,0,.385-.556c-.017-.07.092-.1.109-.03a.571.571,0,0,1-.09.469.578.578,0,0,1-.4.229.057.057,0,0,1-.056-.056A.058.058,0,0,1,1260.485,472.952Z" transform="translate(-1258.228 -471.075)" fill="#cddced"/>
    <path id="Path_2862" data-name="Path 2862" d="M1257.768,505.045c.069.277.343.439.563.587.244.164.491.322.736.483a12.243,12.243,0,0,1,1.42,1.037,5.361,5.361,0,0,1,.68.712c.022.028-.017.068-.04.04a6.394,6.394,0,0,0-1.3-1.206c-.482-.349-.989-.66-1.483-.991-.244-.163-.552-.34-.628-.647A.028.028,0,0,1,1257.768,505.045Z" transform="translate(-1255.578 -502.981)" fill="#cddced"/>
    <path id="Path_2863" data-name="Path 2863" d="M1386.1,630.041l.173-.772c.014-.061.025-.122.042-.182a.234.234,0,0,1,.073-.122c.014-.011.031-.021.028-.04a.1.1,0,0,0-.022-.043.364.364,0,0,1-.058-.1.108.108,0,0,1,.038-.117c.02-.017.043-.029.064-.044a.073.073,0,0,0,.028-.031c0-.01,0-.032-.012-.033-.036,0-.036-.058,0-.056a.076.076,0,0,1,.071.084c0,.049-.047.079-.084.1-.021.013-.05.03-.053.056a.085.085,0,0,0,.019.054.424.424,0,0,1,.063.1.089.089,0,0,1-.036.1.238.238,0,0,0-.075.147c-.032.142-.064.284-.1.427l-.108.481C1386.146,630.091,1386.092,630.076,1386.1,630.041Z" transform="translate(-1380.85 -623.466)" fill="#cddced"/>
    <g id="Group_2423" data-name="Group 2423" transform="translate(4.025 6.089)">
      <path id="Path_2864" data-name="Path 2864" d="M1335.83,672.647c.008-.143.018-.267.029-.374a2.27,2.27,0,0,0,1.3-.208,2.671,2.671,0,0,1,.671-.3c.086-.029.331-.058.129.676a26.733,26.733,0,0,0-.561,4c.058.345.561.806.834,1.165s.633.748.173.863a5.8,5.8,0,0,1-2.719-.575c-.129-.273.058-.763.115-1.41S1335.772,673.7,1335.83,672.647Z" transform="translate(-1335.641 -671.758)" fill="#1a1a1a"/>
      <path id="Path_2865" data-name="Path 2865" d="M1336.356,910.456a8.4,8.4,0,0,0,1.541.412,2.833,2.833,0,0,0,.691.025.364.364,0,0,1-.168.082,5.8,5.8,0,0,1-2.719-.576.706.706,0,0,1-.039-.359c.11.052.266.125.357.167C1336.156,910.269,1336.182,910.375,1336.356,910.456Z" transform="translate(-1335.656 -904.26)" fill="#343434"/>
      <path id="Path_2866" data-name="Path 2866" d="M1358.351,871.677a.086.086,0,0,1,.1-.059l.168.032a3.462,3.462,0,0,1,.343-.985,2.109,2.109,0,0,1,.253-.433.337.337,0,0,1,.386-.15c.1.039.142.163.043.118-.184-.082-.271.094-.345.2a2.685,2.685,0,0,0-.213.4,3,3,0,0,0-.3.889q.19.042.378.091a.085.085,0,0,1-.045.163q-.352-.093-.71-.159A.085.085,0,0,1,1358.351,871.677Z" transform="translate(-1357.797 -865.253)" fill="#cddced"/>
    </g>
  </g>
  <path id="Path_2867" data-name="Path 2867" d="M1341.111,331.479a1.234,1.234,0,0,1,.222-.489,3.23,3.23,0,0,1,.881-.764,9.82,9.82,0,0,1,1.272-.678c.1-.045.184.1.085.146a10.715,10.715,0,0,0-1.076.555,4,4,0,0,0-.9.689,1.073,1.073,0,0,0-.3.981,2.485,2.485,0,0,0,.465.95,2.771,2.771,0,0,0,.876.745c.1.052.01.2-.085.146a2.908,2.908,0,0,1-1.381-1.655A1.293,1.293,0,0,1,1341.111,331.479Z" transform="translate(-1311.47 -325.303)" fill="#fff"/>
  <path id="Path_2868" data-name="Path 2868" d="M1480.489,330.345a1.179,1.179,0,0,1,.556.421,1.145,1.145,0,0,1,.21.725,1.171,1.171,0,0,1-.107.431c-.015.033-.064,0-.049-.028a1.115,1.115,0,0,0,.065-.741,1.105,1.105,0,0,0-.692-.754C1480.44,330.387,1480.454,330.333,1480.489,330.345Z" transform="translate(-1447.451 -326.088)" fill="#be161e"/>
  <path id="Path_2869" data-name="Path 2869" d="M1450.509,413.072a7.208,7.208,0,0,0,.593.466.058.058,0,0,1,.02.077.057.057,0,0,1-.077.02,7.545,7.545,0,0,1-.615-.484C1450.374,413.1,1450.454,413.024,1450.509,413.072Z" transform="translate(-1418.136 -406.795)" fill="#be161e"/>
  <path id="Path_2870" data-name="Path 2870" d="M1476.587,451.927a.057.057,0,0,1-.009-.068q.285-.39.56-.787l.1.055q-.264.38-.536.754a1.53,1.53,0,0,0,.261.2.661.661,0,0,0,.159.085c.023.006.01.009.03-.009a.342.342,0,0,0,.035-.047l.062-.086a5.811,5.811,0,0,0,.419-.689l.1.045a5.8,5.8,0,0,1-.516.824c-.034.045-.066.092-.13.082a.65.65,0,0,1-.193-.091A1.662,1.662,0,0,1,1476.587,451.927Z" transform="translate(-1443.661 -443.887)" fill="#be161e"/>
  <path id="Path_2871" data-name="Path 2871" d="M1492.479,478.316c0-.01.005-.019.009-.029a.23.23,0,0,1,.017-.038.124.124,0,0,1,.026-.032.13.13,0,0,1,.044-.025l.012,0a.112.112,0,0,1,.026,0,.094.094,0,0,1,.048.015.1.1,0,0,1,.036.044.14.14,0,0,1,0,.086.124.124,0,0,1-.057.081l-.006,0-.013.011a.1.1,0,0,1-.085.015.087.087,0,0,1-.067-.081A.123.123,0,0,1,1492.479,478.316Z" transform="translate(-1459.178 -470.344)" fill="#be161e"/>
  <path id="Path_2872" data-name="Path 2872" d="M1574.4,495.125s-1.449-.364-4.355-1.141a53.871,53.871,0,0,1-6.081-2.036,4.173,4.173,0,0,0-.527-.215c-.068-.029.117-.156.322-.127s3.452,1.3,4.79,1.658,5.731,1.547,5.875,1.561S1574.533,495.168,1574.4,495.125Z" transform="translate(-1528.409 -483.435)" fill="#61b5ae"/>
</svg>
