<svg xmlns="http://www.w3.org/2000/svg" width="40" height="40" viewBox="0 0 40 40">
  <g id="Group_2231" data-name="Group 2231" transform="translate(-891 -8996)">
    <circle id="Ellipse_340" data-name="Ellipse 340" cx="20" cy="20" r="20" transform="translate(891 8996)" fill="#f3faf2"/>
    <path id="Path_2557" data-name="Path 2557" d="M18.311,5.679h0a1.276,1.276,0,1,0,1.276,1.276A1.276,1.276,0,0,0,18.311,5.679ZM23.2,8.252a8.071,8.071,0,0,0-.489-2.584A5.253,5.253,0,0,0,21.48,3.786,5,5,0,0,0,19.6,2.564a7.762,7.762,0,0,0-2.584-.5C15.887,2,15.525,2,12.633,2s-3.254,0-4.381.064a7.762,7.762,0,0,0-2.584.5A5.083,5.083,0,0,0,3.786,3.786,5,5,0,0,0,2.564,5.668a7.762,7.762,0,0,0-.5,2.584C2,9.379,2,9.741,2,12.633s0,3.254.064,4.381a7.762,7.762,0,0,0,.5,2.584A5,5,0,0,0,3.786,21.48,5.083,5.083,0,0,0,5.668,22.7a7.762,7.762,0,0,0,2.584.5c1.127.064,1.489.064,4.381.064s3.254,0,4.381-.064a7.762,7.762,0,0,0,2.584-.5A5,5,0,0,0,21.48,21.48,5.157,5.157,0,0,0,22.713,19.6a8.071,8.071,0,0,0,.489-2.584c0-1.127.064-1.489.064-4.381S23.266,9.379,23.2,8.252Zm-1.914,8.634a5.965,5.965,0,0,1-.362,1.978,3.254,3.254,0,0,1-.8,1.223,3.392,3.392,0,0,1-1.223.8,5.965,5.965,0,0,1-1.978.362c-1.063.053-1.457.064-4.253.064s-3.19,0-4.253-.064a6.093,6.093,0,0,1-2.063-.319,3.477,3.477,0,0,1-1.17-.8A3.19,3.19,0,0,1,4.4,18.907a5.891,5.891,0,0,1-.425-2.02c0-1.063-.064-1.457-.064-4.253s0-3.19.064-4.253A5.891,5.891,0,0,1,4.35,6.36a3.19,3.19,0,0,1,.84-1.17,3.339,3.339,0,0,1,1.17-.851,6.093,6.093,0,0,1,2.02-.362c1.063,0,1.457-.064,4.253-.064s3.19,0,4.253.064a5.965,5.965,0,0,1,1.978.362,3.254,3.254,0,0,1,1.265.851,3.254,3.254,0,0,1,.8,1.17,5.965,5.965,0,0,1,.362,2.02c.053,1.063.064,1.457.064,4.253S21.342,15.823,21.289,16.886ZM12.633,7.178A5.444,5.444,0,1,0,16.5,8.769a5.455,5.455,0,0,0-3.867-1.591Zm0,9a3.541,3.541,0,1,1,3.541-3.541,3.541,3.541,0,0,1-3.541,3.541Z" transform="translate(898 9003)" fill="#335f32"/>
  </g>
</svg>
