<svg xmlns="http://www.w3.org/2000/svg" width="125" height="125" viewBox="0 0 125 125">
  <g id="Group_2218" data-name="Group 2218" transform="translate(-131 -3231)">
    <g id="Ellipse_325" data-name="Ellipse 325" transform="translate(131 3231)" fill="#fff" stroke="#f0f0f0" stroke-width="1">
      <circle cx="62.5" cy="62.5" r="62.5" stroke="none"/>
      <circle cx="62.5" cy="62.5" r="62" fill="none"/>
    </g>
    <path id="Path_2552" data-name="Path 2552" d="M10.452,29.01H29.047A10.143,10.143,0,0,0,32.665,9.4,13.523,13.523,0,0,0,7.376,12.781,8.452,8.452,0,0,0,10.452,29.01Zm0-10.143a3.381,3.381,0,0,0,3.381-3.381,6.762,6.762,0,0,1,13.152-2.164,3.381,3.381,0,0,0,2.637,2.231,3.371,3.371,0,0,1-.575,6.694H10.452a1.69,1.69,0,1,1,0-3.381ZM66.237,49.295H62.856V25.629A10.143,10.143,0,0,0,52.713,15.486H49.332a3.381,3.381,0,0,0,0,6.762h3.381a3.381,3.381,0,0,1,3.381,3.381V49.295H15.523V39.152a3.381,3.381,0,0,0-6.762,0V49.295H5.381A3.381,3.381,0,0,0,2,52.676v6.762A10.143,10.143,0,0,0,12.143,69.58H59.475A10.143,10.143,0,0,0,69.617,59.437V52.676A3.381,3.381,0,0,0,66.237,49.295ZM62.856,59.437a3.381,3.381,0,0,1-3.381,3.381H12.143a3.381,3.381,0,0,1-3.381-3.381V56.057H62.856Z" transform="translate(158 3257.984)" fill="#335f32"/>
  </g>
</svg>
