<svg xmlns="http://www.w3.org/2000/svg" width="38.38" height="38.378" viewBox="0 0 38.38 38.378">
  <path id="Path_2560" data-name="Path 2560" d="M21.96,3.256A19.147,19.147,0,0,0,5.813,31.971a.753.753,0,0,0,1.3-.753A17.639,17.639,0,0,1,33.471,8.671H32.7a.753.753,0,1,0,0,1.505h2.738a.753.753,0,0,0,.753-.753V6.686a.753.753,0,1,0-1.505,0V7.715A19.111,19.111,0,0,0,21.96,3.256ZM22.4,7.191A14.967,14.967,0,0,0,9.782,14.415H9.749v.045a14.779,14.779,0,0,0-2.557,7.934A14.766,14.766,0,0,0,9.75,30.328v.047h.03A14.974,14.974,0,0,0,22.4,37.6a14.963,14.963,0,0,0,12.615-7.224h.03v-.045a14.761,14.761,0,0,0,2.56-7.936,14.766,14.766,0,0,0-2.56-7.937v-.041h-.03A14.963,14.963,0,0,0,22.4,7.193ZM21.644,8.85v5.567H16.389a45,45,0,0,1,1.6-4.816,13.163,13.163,0,0,1,3.66-.752Zm1.505,0a13.173,13.173,0,0,1,3.534.707,45.051,45.051,0,0,1,1.618,4.86h-5.15V8.848Zm5.433,1.525a13.888,13.888,0,0,1,4.659,4.042H29.874c-.346-1.339-.8-2.689-1.293-4.042Zm-12.505.068q-.728,1.956-1.269,3.973H11.555a13.911,13.911,0,0,1,4.523-3.973Zm22.3,2.09a.753.753,0,0,0-.614,1.129A17.637,17.637,0,0,1,11.448,36.236h.722a.753.753,0,1,0,0-1.505H9.559a.753.753,0,0,0-.271.015h0a.753.753,0,0,0-.6.737V38.22a.753.753,0,1,0,1.505,0V37.156A19.145,19.145,0,0,0,39.066,12.909.752.752,0,0,0,38.374,12.533ZM10.54,15.922h3.908a33.854,33.854,0,0,0-.749,5.724H8.85A13.348,13.348,0,0,1,10.54,15.922Zm5.435,0h5.671v5.724H15.188a32.162,32.162,0,0,1,.787-5.724Zm7.176,0h5.561a32.162,32.162,0,0,1,.787,5.724H23.151Zm7.084,0h4.021a13.39,13.39,0,0,1,1.69,5.724H30.984A33.859,33.859,0,0,0,30.235,15.922ZM8.849,23.15h4.825a31.091,31.091,0,0,0,.557,5.722H10.542a13.348,13.348,0,0,1-1.69-5.722Zm6.309,0h6.487v5.722H15.752a29.214,29.214,0,0,1-.594-5.722Zm7.992,0h6.38a29.212,29.212,0,0,1-.594,5.722H23.151V23.15Zm7.861,0h4.936a13.377,13.377,0,0,1-1.69,5.722h-3.8a30.988,30.988,0,0,0,.557-5.722ZM11.555,30.377h3.01A35.016,35.016,0,0,0,15.7,34.134a13.965,13.965,0,0,1-4.143-3.756Zm4.545,0h5.546v5.569a13.146,13.146,0,0,1-3.958-.862A35.068,35.068,0,0,1,16.1,30.377Zm7.051,0h5.438a35.1,35.1,0,0,1-1.61,4.754,13.15,13.15,0,0,1-3.827.813V30.377Zm6.971,0h3.12a13.945,13.945,0,0,1-4.283,3.845A34.456,34.456,0,0,0,30.122,30.377Z" transform="translate(-3.25 -3.251)" fill="#335f32"/>
</svg>
