<svg xmlns="http://www.w3.org/2000/svg" width="19.614" height="22.803" viewBox="0 0 19.614 22.803">
  <g id="Group_1900" data-name="Group 1900" transform="translate(-33.05 -34.983)">
    <g id="Group_1901" data-name="Group 1901" transform="translate(33.05 34.983)">
      <path id="Path_2391" data-name="Path 2391" d="M38.928,28.614a1.549,1.549,0,0,0-.059-.975,1.5,1.5,0,0,0-.613-.7c1.934-3.007,1.486-4.716,1.466-4.8l-.051-.169-.157-.075c-5.365-2.578-10.4,1.073-10.612,1.23l-.428.318.428.314a8.576,8.576,0,0,1,2.712,3.18,1.572,1.572,0,0,0-.59.707,2.728,2.728,0,0,0-.1.912c-3.985,2.036-7.075,6.969-5.42,11.233,1.321,3.419,5.7,3.989,9.114,3.989.983,0,1.887-.047,2.614-.083,2.751-.141,4.85-.947,6.1-2.335a5.578,5.578,0,0,0,1.321-4.213,10.933,10.933,0,0,0-5.723-8.541Zm-6.8-1.081a8.9,8.9,0,0,0,5.534,0,.908.908,0,0,1,.476.421.857.857,0,0,1,0,.542,10.9,10.9,0,0,1-6.43.016,1.9,1.9,0,0,1,.063-.6A.959.959,0,0,1,32.133,27.534Zm-2.327-4.056c1.289-.786,5.18-2.751,9.181-.955.039.472,0,1.938-1.552,4.245-.362.106-.707.189-1.042.252a4.889,4.889,0,0,0-.075-2.331l-.743.232a4.485,4.485,0,0,1,0,2.193,7.5,7.5,0,0,1-3.164-.334,8.883,8.883,0,0,0-2.606-3.3ZM42.744,40.826c-1.391,1.572-3.789,1.965-5.55,2.075-3.074.157-9.46.483-10.954-3.388-1.222-3.144.546-8.014,5.109-10.29a10.171,10.171,0,0,0,3.419.546,12.718,12.718,0,0,0,3.626-.527,10.294,10.294,0,0,1,5.457,7.964A4.811,4.811,0,0,1,42.744,40.826Z" transform="translate(-25.05 -20.983)"/>
      <path id="Path_2392" data-name="Path 2392" d="M47.721,50.4h-.828v2.419h-2.2L43.033,50.18l-.762.219v2.419H41v.828h1.276v.915H41v.828h1.276v2.369H43.1V55.39h2.232l1.619,2.584.766-.219V55.39h1.11v-.828h-1.11v-.915h1.11v-.828h-1.11ZM43.1,51.837l.617.982H43.1Zm0,2.725v-.915h1.139l.572.915Zm3.8,1.756-.584-.932h.584Zm0-1.76H45.787l-.576-.915h1.681Z" transform="translate(-35.297 -39.041)"/>
    </g>
  </g>
</svg>
