<svg xmlns="http://www.w3.org/2000/svg" width="46.323" height="36.442" viewBox="0 0 46.323 36.442">
  <g id="Group_2513" data-name="Group 2513" transform="translate(-235.5 -4778)">
    <g id="Card_Payment" data-name="Card Payment" transform="translate(236 4783.449)">
      <g id="_Group_" data-name="&lt;Group&gt;" transform="translate(0 0)">
        <path id="_Path_" data-name="&lt;Path&gt;" d="M24.733,16.021s-.9-6.709-2.178-7.986S14.685,5.13,12.39,4.4A20.46,20.46,0,0,1,7.308,1.5,9.525,9.525,0,0,0,1.5,10.212c4.182,2.425,4.211,5.561,6.534,7.26a6.273,6.273,0,0,0,4.356,1.452A12.328,12.328,0,0,1,17.473,21.1c1.757,1.205,4.356,2.149,5.808.726s-2.062-4.443-3.63-5.082-4.356-2.033-5.082-3.63c.61-.9,1.9-1.06,2.178-1.452a17.512,17.512,0,0,0,2.178.726l1.452,3.63" transform="translate(-1.5 -1.5)" fill="none" stroke="#335f32" stroke-linecap="round" stroke-linejoin="round" stroke-width="1"/>
        <path id="_Path_2" data-name="&lt;Path&gt;" d="M16.26,11.5H28.007a2.178,2.178,0,0,1,2.178,2.178V25.295a2.178,2.178,0,0,1-2.178,2.178H7.678A2.178,2.178,0,0,1,5.5,25.295V13.678A2.149,2.149,0,0,1,5.79,12.6" transform="translate(0.308 3.021)" fill="none" stroke="#335f32" stroke-linecap="round" stroke-linejoin="round" stroke-width="1"/>
        <rect id="_Rectangle_" data-name="&lt;Rectangle&gt;" width="26" height="2" transform="translate(31 27.515) rotate(180)" fill="none" stroke="#335f32" stroke-linecap="round" stroke-linejoin="round" stroke-width="1"/>
      </g>
    </g>
    <g id="Group_2512" data-name="Group 2512" transform="translate(264.337 4778)">
      <path id="Path_2918" data-name="Path 2918" d="M38.5,9.892h-.566V9.345H38.5a.312.312,0,1,0,0-.625h-.566V7.275a.312.312,0,0,0-.625,0V8.72H35.962L34.955,7.11a.314.314,0,0,0-.577.166V8.72h-.566a.312.312,0,1,0,0,.625h.566v.547h-.566a.312.312,0,0,0,0,.625h.566v1.445a.312.312,0,0,0,.625,0V10.516h1.345l1.007,1.61a.312.312,0,0,0,.577-.166V10.516H38.5a.312.312,0,1,0,0-.625ZM35,8.364l.222.356H35Zm0,1.527V9.345h.613l.342.547Zm2.3.98-.222-.356h.222Zm0-.98h-.613l-.342-.547h.955Zm4.022-5.447a1.49,1.49,0,0,0-1.645-.328l-1.4.578a.313.313,0,1,0,.238.578l1.4-.578a.886.886,0,0,1,1.158,1.157c-.007.046-.651,1.513-.6,1.525a.313.313,0,0,0,.605.107l.574-1.394A1.49,1.49,0,0,0,41.329,4.444Z" transform="translate(-24.289 -3.998)" fill="#335f32"/>
      <path id="Path_2919" data-name="Path 2919" d="M17.694,22.133a.312.312,0,0,0-.408.17l-2.449,5.951a.89.89,0,0,1-1.557.155L10.14,23.7c.173-.148-4.967-3.408-5.126-3.558a.891.891,0,0,1,.155-1.556l5.952-2.449a.312.312,0,1,0-.238-.578L4.931,18.009a1.52,1.52,0,0,0-.264,2.654L9.376,23.8a.871.871,0,0,1,.244.244l3.14,4.708a1.519,1.519,0,0,0,2.655-.263l2.449-5.952A.312.312,0,0,0,17.694,22.133Zm-7.85,4.4c-.035.037-2.284,2.283-2.26,2.26a.312.312,0,1,0,.442.442l2.26-2.26a.312.312,0,1,0-.442-.442ZM6.9,23.138a.312.312,0,0,0-.442,0L4.194,25.4a.312.312,0,1,0,.442.442L6.9,23.58a.312.312,0,0,0,0-.442Zm1.7,1.7a.312.312,0,0,0-.442,0l-3.39,3.39a.312.312,0,1,0,.442.442l3.39-3.39A.312.312,0,0,0,8.591,24.833Z" transform="translate(-4.005 -11.933)" fill="#335f32"/>
      <path id="Path_2920" data-name="Path 2920" d="M32.7,8.5a4.218,4.218,0,1,0,4.218,4.218A4.222,4.222,0,0,0,32.7,8.5Zm0,7.81a3.593,3.593,0,1,1,3.593-3.593A3.6,3.6,0,0,1,32.7,16.314Z" transform="translate(-20.839 -7.097)" fill="#335f32"/>
    </g>
  </g>
</svg>
