<svg xmlns="http://www.w3.org/2000/svg" width="28" height="28" viewBox="0 0 28 28">
  <g id="Group_2413" data-name="Group 2413" transform="translate(0.165 0.443)">
    <g id="Group_1956" data-name="Group 1956" transform="translate(0 0)">
      <g id="Group_1955" data-name="Group 1955">
        <circle id="Ellipse_313" data-name="Ellipse 313" cx="14" cy="14" r="14" transform="translate(-0.165 -0.443)" fill="#f5f5de"/>
        <path id="Path_2436" data-name="Path 2436" d="M10.969,2a8.969,8.969,0,1,0,8.969,8.969A9,9,0,0,0,10.969,2Zm4.215,9.866a1.413,1.413,0,0,1-.628.628l-4.484,2.6a1.739,1.739,0,0,1-2.422-.628,1.515,1.515,0,0,1-.269-.9v-5.2A1.8,1.8,0,0,1,9.175,6.574a1.515,1.515,0,0,1,.9.269l4.484,2.6A1.67,1.67,0,0,1,15.184,11.866Z" transform="translate(2.466 2.466)" fill="#335f32"/>
      </g>
    </g>
  </g>
</svg>
