<svg xmlns="http://www.w3.org/2000/svg" width="42.292" height="33.702" viewBox="0 0 42.292 33.702">
  <g id="Group_2190" data-name="Group 2190" transform="translate(0 -13)">
    <path id="Path_2533" data-name="Path 2533" d="M44,15.643v7.93a2.646,2.646,0,0,0,2.643,2.643h7.93a2.646,2.646,0,0,0,2.643-2.643v-7.93A2.646,2.646,0,0,0,54.573,13h-7.93A2.646,2.646,0,0,0,44,15.643Zm11.895,0v7.93a1.323,1.323,0,0,1-1.322,1.322h-7.93a1.323,1.323,0,0,1-1.322-1.322v-7.93a1.323,1.323,0,0,1,1.322-1.322h7.93A1.323,1.323,0,0,1,55.895,15.643Z" transform="translate(-29.462 0)" fill="#335f32"/>
    <path id="Path_2534" data-name="Path 2534" d="M20.631,24.352a.813.813,0,0,0,.568.229h.007a.812.812,0,0,0,.57-.238l2.574-2.566a2.563,2.563,0,0,0,.76-1.852,2.6,2.6,0,0,0-.807-1.862,2.72,2.72,0,0,0-2.77-.6,1.267,1.267,0,0,1-.829.005,2.7,2.7,0,0,0-2.763.625,2.563,2.563,0,0,0-.76,1.852,2.6,2.6,0,0,0,.807,1.861Zm-1.757-5.32a1.348,1.348,0,0,1,.952-.386,1.391,1.391,0,0,1,.45.075,2.591,2.591,0,0,0,1.7-.009,1.389,1.389,0,0,1,1.414.3,1.287,1.287,0,0,1,.4.921,1.253,1.253,0,0,1-.372.9l-2.224,2.217-2.289-2.2a1.286,1.286,0,0,1-.4-.921,1.252,1.252,0,0,1,.372-.9ZM39.649,15h-7.93a2.646,2.646,0,0,0-2.643,2.643v6.608a2.646,2.646,0,0,0,2.643,2.643h7.93a2.646,2.646,0,0,0,2.643-2.643V17.643A2.646,2.646,0,0,0,39.649,15Zm1.322,9.251a1.323,1.323,0,0,1-1.322,1.322h-7.93A1.323,1.323,0,0,1,30.4,24.251V17.643a1.323,1.323,0,0,1,1.322-1.322h7.93a1.323,1.323,0,0,1,1.322,1.322ZM2.643,26.895h7.93a2.646,2.646,0,0,0,2.643-2.643V17.643A2.646,2.646,0,0,0,10.573,15H2.643A2.646,2.646,0,0,0,0,17.643v6.608a2.646,2.646,0,0,0,2.643,2.643ZM1.322,17.643a1.323,1.323,0,0,1,1.322-1.322h7.93a1.323,1.323,0,0,1,1.322,1.322v6.608a1.323,1.323,0,0,1-1.322,1.322H2.643a1.323,1.323,0,0,1-1.322-1.322Z" transform="translate(0 -1.339)" fill="#335f32"/>
    <path id="Path_2535" data-name="Path 2535" d="M43.049,23a3.3,3.3,0,1,0,3.3,3.3,3.3,3.3,0,0,0-3.3-3.3Zm0,5.286A1.982,1.982,0,1,1,45.032,26.3a1.982,1.982,0,0,1-1.982,1.982Zm-29.543.8a.661.661,0,0,0,.934,0l2.313-2.313a.661.661,0,0,0,0-.934l-2.313-2.313a.661.661,0,0,0-.934,0l-2.313,2.313a.661.661,0,0,0,0,.934Zm.467-4.158L15.352,26.3l-1.378,1.378L12.6,26.3ZM26.4,52.294a.693.693,0,0,0,.04.075A2.48,2.48,0,0,0,28.79,53.4h5.274a2.131,2.131,0,0,0,2.021-1.575,26.909,26.909,0,0,0,.659-4.643c.016-.056.027-4.312.027-4.312a1.742,1.742,0,0,0-1.663-1.809,1.718,1.718,0,0,0-.537.087,1.672,1.672,0,0,0-1.659-1.408,1.783,1.783,0,0,0-.633.117,1.657,1.657,0,0,0-1.5-1,1.748,1.748,0,0,0-.5.077V36.756a1.715,1.715,0,0,0-1.67-1.862,1.749,1.749,0,0,0-1.817,1.758v7.1a3.654,3.654,0,0,0-1.536-1.25,1.78,1.78,0,0,0-1.4.07,1.455,1.455,0,0,0-.812.765,2.845,2.845,0,0,0,.334,2.429C23.485,45.971,25.244,49.782,26.4,52.294ZM24.241,43.9a.162.162,0,0,1,.053-.079c.059-.008.053-.017.12-.052a.459.459,0,0,1,.4-.024c.713.252,1.531,1.614,1.879,2.414a.754.754,0,0,0,1.42-.256v-9.25c0-.277.181-.436.5-.436s.348.378.348.54V45.9a.661.661,0,1,0,1.322,0V40.593c0-.19.273-.414.5-.414a.388.388,0,0,1,.34.414V45.9a.661.661,0,1,0,1.322,0l0-4.381a.466.466,0,0,1,.468-.462c.362,0,.373.415.373.462v4.347a.661.661,0,1,0,1.322,0v-3a.563.563,0,0,1,.5-.487c.161,0,.341.2.341.487v3.319a24.962,24.962,0,0,1-.652,5.338.82.82,0,0,1-.734.551H28.79c-.642,0-.978-.038-1.209-.378-.377-.818-2.879-6.25-3.022-6.532C24.14,44.338,24.21,43.987,24.241,43.9Z" transform="translate(-7.366 -6.696)" fill="#335f32"/>
  </g>
</svg>
