<svg id="Group_2426" data-name="Group 2426" xmlns="http://www.w3.org/2000/svg" width="44.052" height="51.653" viewBox="0 0 44.052 51.653">
  <g id="Group_2410" data-name="Group 2410">
    <g id="Group_2427" data-name="Group 2427">
      <path id="Path_2873" data-name="Path 2873" d="M569.679,2101.478a2.645,2.645,0,0,0-1.22-.516.2.2,0,0,1-.052-.379,4.6,4.6,0,0,1,3.123-.186,2.261,2.261,0,0,0,.763.131,1.751,1.751,0,0,1-.233-.442,2.822,2.822,0,0,1,.183-1.985,15.985,15.985,0,0,0-2.576.774c.1.01.249.019.458.019.141,0,.434,0,.477.226.055.283-.272.439-2.132,1.188-1.129.454-3.216,1.294-3.356,1.656.073.069.388.2,1.708.189.3-.085.6-.16.859-.221a6.363,6.363,0,0,0,2-.454Z" transform="translate(-558.926 -2052.663)" fill="#9cd388"/>
      <path id="Path_2874" data-name="Path 2874" d="M1157.571,2044.194a7.8,7.8,0,0,1-.841,1.6,11.093,11.093,0,0,1,4.071-.611c.088.018.355.071.419.294a.453.453,0,0,1-.185.451c-.63.595-.7,1-.689,1.195,1.571-.186,13.418-1.587,16.715-1.867l.321-.025a5.281,5.281,0,0,0,2.013-.708c-.109-.081-.6-.294-2.782-.437C1175.335,2044.007,1164.257,2043.858,1157.571,2044.194Z" transform="translate(-1136.861 -1999.798)" fill="#9cd388"/>
      <path id="Path_2875" data-name="Path 2875" d="M587.947,2111.562c-3.508.3-16.74,1.87-16.873,1.887a.2.2,0,0,1-.194-.1c-.043-.073-.39-.74.735-1.8a.629.629,0,0,0,.044-.045,3.01,3.01,0,0,0-1.124-.021,8.389,8.389,0,0,0-3.493.946c-.145.175-.3.344-.453.505a4.7,4.7,0,0,1-3.25,1.641,2.943,2.943,0,0,1-.773-.1,3.1,3.1,0,0,1-1.1-.516,3.33,3.33,0,0,1-1.3-.154,3.579,3.579,0,0,0-2.187-.019,2.348,2.348,0,0,1,.788.466.343.343,0,0,1,.112.369c-.147.439-1.528.655-2.339.744a7.25,7.25,0,0,0-2.9,1.113c.041.06.487.46,5.045.483h.246c10.658,0,28.711-3.459,30.987-4.112,1.113-.319,1.481-.694,1.451-.854C591.331,2111.809,590.631,2111.333,587.947,2111.562Z" transform="translate(-547.712 -2065.704)" fill="#9cd388"/>
      <path id="Path_2876" data-name="Path 2876" d="M341.509,179.329c-.086-.47-.826-.75-2.054-.805.964-.339.962-.557.961-.695,0-.311-.251-.63-3.171-.821-1.271-.083-12.209-.23-18.939.1a2,2,0,0,0,.059-1.034,7.167,7.167,0,0,1-.309-1.505c.658.322,2.329.752,5.157-.978a2.664,2.664,0,0,0,1.918.53,2.617,2.617,0,0,0,1.776-1.434c.377-.782-.284-2.866-1.359-4.289a3.4,3.4,0,0,0-2.439-1.564l.308-.432a1.7,1.7,0,0,0,1.385,0c.722-.35,1.191-1.269,1.392-2.733a.191.191,0,0,0,0-.04c-.049-.783-.2-1.257-.454-1.452a.466.466,0,0,0-.061-.04v-.874a3.88,3.88,0,0,0,1.1.2,1.8,1.8,0,0,0,1.513-.657,4,4,0,0,0,.973-3.438,6.434,6.434,0,0,0-1.6-5.634c-1.908-1.918-5.122-2.473-9.564-1.649l-.214.051a3.471,3.471,0,0,0,1.056-2.713,3.481,3.481,0,0,0,.649-1.825.2.2,0,0,0-.13-.209l-.458-.164.708-1.4a.2.2,0,0,0-.13-.283,2.343,2.343,0,0,0-1.227.063q-.238-.7-.494-1.3a19.035,19.035,0,0,0,2.487.639,11.8,11.8,0,0,0,2.088.2,4.679,4.679,0,0,0,3.708-1.365c.986-1.146,1.3-2,.966-2.6-.529-.946-2.539-.841-4.132-.586a49.43,49.43,0,0,1-7.3.348,5.465,5.465,0,0,0-1.079-.787c3.541-1.861,6.046-3.366,5.629-4.367-.124-.3-.487-.5-1.08-.6-2.371-.407-8.739.847-11.616,4.034a1.615,1.615,0,0,0-.462.848,6,6,0,0,0-3.408,2.565,7.79,7.79,0,0,0-.873,5.43c-2.047,4.793,1.325,6.575,1.36,6.592a.2.2,0,0,0,.284-.217l-.026-.126a9.166,9.166,0,0,0,2.66.952.889.889,0,0,0,.236.254,9.033,9.033,0,0,0-2.559,4.171.549.549,0,0,1-.313.345,4.415,4.415,0,0,1-2.605-.374c-.173-.268-.85-1.239-1.6-1.263a.949.949,0,0,0-.783.4,2.053,2.053,0,0,0-1.3,1.017,2.95,2.95,0,0,0-.533,2.671,1.448,1.448,0,0,0,1.287.752c.523.788.828,1.2,1.726.919a4.113,4.113,0,0,0,2.948,2.23c1.468.118,3.017-.924,4.605-3.1a28.919,28.919,0,0,0,1.405,3.853c-.136.574-.885,4.1.666,6.325a18.359,18.359,0,0,0,.973,6.249c-.053.081-.135.213-.226.381-.485.112-.939.225-1.347.336-2.056.56-2.036.8-2.021.977.02.241.3.316.781.332-.389.184-1.015.436-1.553.652-2.546,1.024-3.731,1.567-3.6,2.117.045.188.2.373,1,.453-.731.277-1.3.609-1.263.96.033.286.093.819,5.437.846h.247c10.695,0,28.814-3.472,31.1-4.128,1.191-.342,1.822-.819,1.732-1.308Zm-1.842.927c-2.276.653-20.329,4.112-30.987,4.112h-.246c-4.558-.023-5-.424-5.045-.483a7.25,7.25,0,0,1,2.9-1.113c.81-.089,2.191-.3,2.339-.744a.343.343,0,0,0-.112-.369,2.353,2.353,0,0,0-.788-.466,3.58,3.58,0,0,1,2.187.019,3.327,3.327,0,0,0,1.3.154,3.1,3.1,0,0,0,1.1.516,2.95,2.95,0,0,0,.773.1,4.7,4.7,0,0,0,3.25-1.641c.157-.161.309-.33.453-.505a8.388,8.388,0,0,1,3.493-.946,3.009,3.009,0,0,1,1.124.021.608.608,0,0,1-.044.045c-1.125,1.062-.778,1.73-.735,1.8a.2.2,0,0,0,.194.1c.133-.016,13.365-1.588,16.873-1.887,2.684-.228,3.385.247,3.419.432C341.149,179.562,340.781,179.937,339.667,180.256Zm-36.013,2.157c.14-.362,2.227-1.2,3.356-1.657,1.86-.749,2.187-.9,2.132-1.188-.044-.226-.337-.226-.478-.226-.209,0-.355-.008-.458-.019a15.925,15.925,0,0,1,2.576-.774,2.821,2.821,0,0,0-.183,1.985,1.749,1.749,0,0,0,.233.441,2.247,2.247,0,0,1-.763-.13,4.608,4.608,0,0,0-3.123.185.2.2,0,0,0,.052.38,2.642,2.642,0,0,1,1.22.516,6.371,6.371,0,0,1-2,.454c-.259.061-.554.136-.859.221-1.32.009-1.635-.12-1.708-.189Zm-.042-18.42c-1.719-.139-2.7-2.142-2.706-2.163a.2.2,0,0,0-.248-.1c-.767.282-.889.1-1.478-.791a.2.2,0,0,0-.156-.089,1.13,1.13,0,0,1-1.053-.539,2.615,2.615,0,0,1,.506-2.271c.359-.528.774-.867,1.05-.845a.2.2,0,0,0,.179-.083.617.617,0,0,1,.508-.317c.513.016,1.111.806,1.306,1.12l.816,1.662a.2.2,0,0,0,.178.111.194.194,0,0,0,.087-.02.2.2,0,0,0,.091-.266l-.6-1.22a4.016,4.016,0,0,0,2.506.215.939.939,0,0,0,.526-.585,8.562,8.562,0,0,1,2.581-4.125,1.437,1.437,0,0,0,.266.024,2.491,2.491,0,0,0,.637-.095,2.383,2.383,0,0,0,.512,1.351c-.442,1.152-1.345,4.6,1.155,9.477a6.347,6.347,0,0,0,2.321,2.885q-.079.111-.16.23c-.4-.087-1.547-.509-2.459-2.529l0,0,0-.007a31.681,31.681,0,0,1-1.524-4.23,17.415,17.415,0,0,1-.117-5.42.2.2,0,0,0-.392-.061,17.57,17.57,0,0,0,.1,5.485c-1.566,2.234-3.056,3.318-4.434,3.2Zm5.925-8.982a2.333,2.333,0,0,0,1.475.446.2.2,0,0,0,.186-.165l.058-.344a1.6,1.6,0,0,0,2.081-.143c.28-.227.421-.341.732-.144,3.786,2.884,3.3,8.14,2.439,9.521-2.079.206-3.354,2.212-3.692,2.812a5.9,5.9,0,0,1-2.183-2.73c-2.483-4.843-1.474-8.29-1.1-9.253Zm.34,10.707a4.1,4.1,0,0,0,2.33,2.191c-.72,1.114-1.457,2.5-1.772,3.1C309.411,169.292,309.686,166.813,309.879,165.718Zm1.758,11.953a17.875,17.875,0,0,1-.983-6.217c.148-.288,1.111-2.151,1.991-3.485a.2.2,0,0,0,.137-.2c.1-.142.192-.275.284-.4l0,0,0,0,.012-.021h0v0h0c.056-.111,1.354-2.607,3.549-2.762a.2.2,0,0,0,.148-.083c.949-1.333,1.583-7.052-2.486-10.151a.9.9,0,0,0-1.209.161c-.381.309-.775.629-1.878-.03a.2.2,0,0,0-.185-.01.2.2,0,0,0-.112.148l-.076.454a1.529,1.529,0,0,1-1.187-.52.19.19,0,0,0-.175-.091.2.2,0,0,0-.167.1v0a2.28,2.28,0,0,1-.3-1.045.207.207,0,0,0,0-.021,5.116,5.116,0,0,0,.674-.314.2.2,0,0,0-.2-.344,2.936,2.936,0,0,1-1.769.448.514.514,0,0,1-.328-.277.2.2,0,0,0-.138-.106c-1.175-.243-2.875-.805-2.975-1.3a.2.2,0,0,0-.393.04.207.207,0,0,0,0,.04l.076.372c-.773-.6-2.312-2.34-.767-5.893a.2.2,0,0,0,.008-.138,7.385,7.385,0,0,1,.811-5.176,6.011,6.011,0,0,1,4.4-2.68c.252-.029.5-.06.755-.091,3.443-.429,6.694-.833,8.895,5.866a.2.2,0,0,0,.284.112,1.666,1.666,0,0,1,.9-.158l-.685,1.35a.2.2,0,0,0,.11.277l.52.187c-.08.559-.282,1.3-.539,1.447a.2.2,0,0,0-.1.194,2.886,2.886,0,0,1-1.4,2.81l-1.75.889a.2.2,0,0,0,.18.354l1.228-.624c.457-.093.92-.194,1.387-.306,4.233-.786,7.415-.253,9.2,1.54a6.038,6.038,0,0,1,1.484,5.318.2.2,0,0,0,0,.077,3.6,3.6,0,0,1-.863,3.123,1.425,1.425,0,0,1-1.185.537c-.924-.051-1.513-.308-1.75-.765-.4-.777.3-1.923.308-1.935a.2.2,0,0,0,0-.206l-.638-1.078a.187.187,0,0,0-.026-.035c-1.454-1.546-4.457-1.636-4.584-1.639h0a.2.2,0,0,0-.042.392c.8.174,1.972,2.045,3.067,4.885.954,4,.05,5.326.037,5.345v0h0l-.648.907v0a.25.25,0,0,0-.014.022,12.772,12.772,0,0,1-4.364,4.545.2.2,0,0,0-.04.031c-.582.587-.483,2.368-.462,2.667a5.2,5.2,0,0,0,.322,1.977c.2.676-.6,2.519-1.928,3.881-.7.714-2.1,1.849-3.636,1.433a1.914,1.914,0,0,1-1.446-1.1c-.39-1.091.627-2.535.637-2.549a.2.2,0,0,0,.025-.183Zm7.45-44.092c.43.074.715.207.78.365.315.754-3.268,2.723-5.7,4a9.557,9.557,0,0,0-5.055-.263c-.25.031-.5.062-.76.092q-.43.069-.829.172a1.7,1.7,0,0,1,.314-.455c2.371-2.627,7.507-3.978,10.29-3.978a5.805,5.805,0,0,1,.964.07Zm7.681,5.8c.238.426-.08,1.168-.92,2.145-1.856,2.159-6.288.947-8.2.287a12.067,12.067,0,0,0-.661-1.239c.318.027.739.051,1.232.051a14.243,14.243,0,0,0,2.279-.179.437.437,0,0,1,.011.294.572.572,0,0,1-.294.286.2.2,0,0,0-.123.152.126.126,0,0,1-.062.086,2.836,2.836,0,0,1-1.513.048.2.2,0,0,0-.071.391,3.7,3.7,0,0,0,1.682-.042.751.751,0,0,0,.13-.072.544.544,0,0,0,.2-.238.922.922,0,0,0,.427-.472.8.8,0,0,0,.012-.5c.718-.125,2.822-.492,3.466-.621.705-.141,1.666-.09,1.744.092,0,0,.055.2-.727.739a5.716,5.716,0,0,1-2.847,1.1.2.2,0,0,0-.195.18.2.2,0,0,0,.2.217h0a5.983,5.983,0,0,0,3.068-1.171c.459-.318,1.048-.791.866-1.221-.282-.662-2.168-.329-2.187-.326-.773.155-3.669.657-3.7.662h0a14.392,14.392,0,0,1-3.872.117,7.8,7.8,0,0,0-.626-.795,47.792,47.792,0,0,0,6.965-.359c2.045-.327,3.4-.186,3.723.388Zm-2.135,26.661a1.288,1.288,0,0,1-1,.019c.244-.522.709-2.069-.072-5.4a.234.234,0,0,1,.129-.078,2.884,2.884,0,0,1,1.6.619v1.081a.2.2,0,0,0,.074.154.178.178,0,0,0,.133.044c.032.019.245.179.308,1.148C325.618,164.919,325.215,165.752,324.633,166.036Zm1.923,6.462a3.682,3.682,0,0,1-.36.521.2.2,0,0,0-.145-.171.964.964,0,0,1-.634-.515.2.2,0,0,0-.37.146,1.363,1.363,0,0,0,.9.752.189.189,0,0,0,.045.006,1.82,1.82,0,0,1-.765.453.2.2,0,0,0-.06-.156,1.857,1.857,0,0,1-.458-.645.2.2,0,0,0-.378.123,2.126,2.126,0,0,0,.488.735,2.353,2.353,0,0,1-1.241-.394,2.4,2.4,0,0,0,.863-1.112.2.2,0,1,0-.379-.118,2.073,2.073,0,0,1-.934,1.05l0,0h0c-3.115,1.95-4.738,1.14-5.066.931a4.272,4.272,0,0,1,.336-2.271,13.008,13.008,0,0,0,4.442-4.6,2.854,2.854,0,0,1,2.4,1.4c1.029,1.362,1.594,3.3,1.325,3.864Zm-1.869-12.089a2.279,2.279,0,0,0-.882-.236.877.877,0,0,0-.214.025.684.684,0,0,0-.172.069,14.027,14.027,0,0,0-2.464-4.386,6.143,6.143,0,0,1,3.462,1.423l.567.958A2.646,2.646,0,0,0,324.686,160.409Zm13.3,18.141q-.158.011-.321.025c-3.3.281-15.145,1.681-16.715,1.867-.013-.19.059-.6.689-1.195a.453.453,0,0,0,.184-.451c-.064-.223-.331-.277-.419-.294a11.1,11.1,0,0,0-4.071.611,7.8,7.8,0,0,0,.841-1.6c6.685-.336,17.764-.187,19.043-.1,2.182.143,2.673.356,2.782.437A5.279,5.279,0,0,1,337.988,178.55Z" transform="translate(-297.466 -133.112)" fill="#474747"/>
      <path id="Path_2877" data-name="Path 2877" d="M828.816,1545.341a4.1,4.1,0,0,1-2.33-2.191c-.193,1.1-.468,3.574.558,5.291C827.359,1547.837,828.1,1546.455,828.816,1545.341Z" transform="translate(-814.073 -1510.545)" fill="#fcfcfc"/>
      <path id="Path_2878" data-name="Path 2878" d="M524.681,381.155a1.914,1.914,0,0,0,1.446,1.1c1.541.415,2.94-.719,3.636-1.433,1.33-1.363,2.128-3.205,1.928-3.881a5.19,5.19,0,0,1-.322-1.977c-.021-.3-.12-2.08.462-2.667a.2.2,0,0,1,.04-.031,12.771,12.771,0,0,0,4.364-4.545.226.226,0,0,1,.014-.022v0l.648-.908h0v0c.014-.02.917-1.341-.036-5.345-1.1-2.839-2.27-4.71-3.067-4.884a.2.2,0,0,1,.042-.392h0c.127,0,3.13.094,4.584,1.639a.2.2,0,0,1,.026.035l.638,1.078a.2.2,0,0,1,0,.206c-.007.011-.711,1.158-.308,1.935.237.457.826.714,1.75.765a1.424,1.424,0,0,0,1.185-.537,3.6,3.6,0,0,0,.863-3.123.2.2,0,0,1,0-.077,6.038,6.038,0,0,0-1.484-5.318c-1.785-1.793-4.966-2.326-9.2-1.54-.467.112-.93.213-1.387.306l-1.228.623a.2.2,0,1,1-.18-.354l1.75-.889a2.886,2.886,0,0,0,1.4-2.81.2.2,0,0,1,.1-.194c.257-.149.458-.888.539-1.447l-.52-.187a.2.2,0,0,1-.11-.277l.685-1.35a1.667,1.667,0,0,0-.9.158.2.2,0,0,1-.284-.112c-2.2-6.7-5.452-6.3-8.894-5.866-.251.031-.5.063-.755.091a6.011,6.011,0,0,0-4.4,2.68,7.384,7.384,0,0,0-.811,5.176.2.2,0,0,1-.008.138c-1.544,3.552-.005,5.29.767,5.893l-.076-.372a.2.2,0,0,1,0-.04.2.2,0,0,1,.393-.04c.1.491,1.8,1.054,2.975,1.3a.2.2,0,0,1,.138.106.514.514,0,0,0,.328.277,2.936,2.936,0,0,0,1.769-.448.2.2,0,0,1,.2.344,5.035,5.035,0,0,1-.674.314.184.184,0,0,1,0,.021,2.281,2.281,0,0,0,.3,1.045v0a.2.2,0,0,1,.167-.1.19.19,0,0,1,.175.091,1.528,1.528,0,0,0,1.187.52l.076-.454a.2.2,0,0,1,.3-.138c1.1.659,1.5.339,1.878.03a.9.9,0,0,1,1.209-.161c4.069,3.1,3.435,8.819,2.486,10.151a.2.2,0,0,1-.148.083c-2.194.155-3.492,2.651-3.549,2.762h0v0h0l-.012.021,0,0,0,0c-.092.123-.187.257-.284.4a.192.192,0,0,1,0,.021.2.2,0,0,1-.137.183c-.88,1.334-1.843,3.2-1.991,3.485a17.876,17.876,0,0,0,.983,6.217.2.2,0,0,1-.025.183c-.01.015-1.027,1.458-.637,2.549Zm-1.51-34.612a.587.587,0,0,1-.116.818.493.493,0,0,1-.27.079.553.553,0,0,1-.17-.027.677.677,0,0,1-.353-.277l-.013-.022a.2.2,0,0,1-.2-.345l1.461-.909a.2.2,0,0,1,.21.337l-.555.345,0,0Zm1.427,1.046c.592-.058,1.091.093,1.115.337s-.436.489-1.028.547-1.091-.093-1.115-.337.436-.489,1.028-.547Zm-5.938,1.359c-.014.208-.435.35-.94.317s-.9-.23-.89-.438.435-.35.94-.317S518.674,348.74,518.66,348.949Zm-.227-.8a.587.587,0,0,1-.116-.818l0,0-.555-.345a.2.2,0,1,1,.21-.337l1.461.909a.2.2,0,0,1-.2.345l-.013.022a.638.638,0,0,1-.522.306A.493.493,0,0,1,518.433,348.152Zm2.735,2.552a1.4,1.4,0,0,1-.917.746.858.858,0,0,1-.126.009,1.473,1.473,0,0,1-1.079-.654.2.2,0,1,1,.307-.252c.306.371.59.543.842.5.364-.052.616-.51.7-.684l-.165-.605c-.525-.148-1.388-.87-.339-1.187,1.268-.383,1.88.106.726,1.1l.164.6a1.147,1.147,0,0,0,1.019.371c.659-.169,1.016-1.191,1.019-1.2a.2.2,0,0,1,.376.128c-.017.05-.428,1.235-1.3,1.458a1.418,1.418,0,0,1-1.231-.334Zm3.225,3.17h-.015a.2.2,0,0,1-.015-.4,8.219,8.219,0,0,0,3.713-1.189.2.2,0,1,1,.252.307A8.447,8.447,0,0,1,524.393,353.874Zm4.492-.266a.975.975,0,0,1-.784.455,1.079,1.079,0,0,1-.693.543.967.967,0,0,1-.2.021,1.444,1.444,0,0,1-.808-.293.2.2,0,0,1,.247-.311.952.952,0,0,0,.682.194.767.767,0,0,0,.486-.451.2.2,0,0,1,.222-.1.557.557,0,0,0,.528-.284.2.2,0,0,1,.324.229Zm-3.027,28.224a2.81,2.81,0,0,1,.6-2.448.2.2,0,0,1,.295.266,2.451,2.451,0,0,0-.51,2.082.2.2,0,0,1-.142.242.2.2,0,0,1-.05.006A.2.2,0,0,1,525.857,381.832Zm1.982-.1a.2.2,0,0,1-.385.1,2.81,2.81,0,0,1,.6-2.448.2.2,0,0,1,.295.266,2.452,2.452,0,0,0-.51,2.082Z" transform="translate(-511.173 -333.865)" fill="#fcfcfc"/>
      <path id="Path_2879" data-name="Path 2879" d="M1192.06,1608.373a13.006,13.006,0,0,1-4.442,4.6,4.272,4.272,0,0,0-.337,2.271c.328.209,1.951,1.019,5.066-.931h0l0,0a2.075,2.075,0,0,0,.933-1.05.2.2,0,1,1,.379.118,2.4,2.4,0,0,1-.863,1.113,2.355,2.355,0,0,0,1.241.394,2.122,2.122,0,0,1-.488-.735.2.2,0,0,1,.377-.123,1.862,1.862,0,0,0,.458.645.2.2,0,0,1,.06.156,1.82,1.82,0,0,0,.765-.453.191.191,0,0,1-.045-.006,1.362,1.362,0,0,1-.9-.752.2.2,0,0,1,.369-.146.964.964,0,0,0,.634.515.2.2,0,0,1,.145.171,3.686,3.686,0,0,0,.36-.521c.27-.561-.3-2.5-1.325-3.864a2.854,2.854,0,0,0-2.4-1.4Z" transform="translate(-1166.693 -1574.247)" fill="#fcfcfc"/>
      <path id="Path_2880" data-name="Path 2880" d="M324.636,1021.423a.2.2,0,1,1,.392.061,17.415,17.415,0,0,0,.117,5.42,31.684,31.684,0,0,0,1.524,4.23l0,.007,0,0c.912,2.02,2.057,2.442,2.459,2.529q.081-.118.16-.23a6.351,6.351,0,0,1-2.321-2.885c-2.5-4.874-1.6-8.326-1.155-9.478a2.383,2.383,0,0,1-.512-1.351,2.493,2.493,0,0,1-.637.095,1.444,1.444,0,0,1-.266-.024,8.562,8.562,0,0,0-2.581,4.125.939.939,0,0,1-.526.585,4.018,4.018,0,0,1-2.506-.215l.6,1.22a.2.2,0,0,1-.357.175l-.816-1.662c-.2-.314-.793-1.1-1.306-1.12a.617.617,0,0,0-.508.317.2.2,0,0,1-.179.083c-.275-.022-.691.316-1.05.845a2.615,2.615,0,0,0-.506,2.271,1.131,1.131,0,0,0,1.053.539.2.2,0,0,1,.156.089c.588.889.711,1.073,1.478.791a.2.2,0,0,1,.248.1c.01.02.986,2.024,2.706,2.163,1.378.118,2.868-.966,4.434-3.2a17.57,17.57,0,0,1-.1-5.485Zm-7.581,4.588a.2.2,0,0,1-.279-.01,1.625,1.625,0,0,1-.376-1.075,1.052,1.052,0,0,1-.152.035.924.924,0,0,1,.066.658.8.8,0,0,1-.332.424.763.763,0,0,1-.288.623.535.535,0,0,1-.3.089.66.66,0,0,1-.236-.044.2.2,0,0,1,.149-.368.216.216,0,0,0,.169-.008c.072-.05.114-.2.114-.413a.2.2,0,0,1,.127-.185.417.417,0,0,0,.22-.238.78.78,0,0,0-.188-.616h0a.2.2,0,0,1-.019-.035h0l-.007-.018,0-.006,0-.013s0-.006,0-.01,0-.006,0-.01,0-.013,0-.02h0c0-.006,0-.013,0-.019h0v0c0-.005,0-.01,0-.015l0-.007,0-.012,0-.009,0-.009,0-.011,0-.006.008-.015h0a.191.191,0,0,1,.186-.09c.326.032.478-.064.548-.159.02-.069.045-.139.075-.212a.2.2,0,0,1,.382.088.708.708,0,0,1-.087.279,1.277,1.277,0,0,0,.218,1.164.2.2,0,0,1-.012.28Z" transform="translate(-314.16 -999.228)" fill="#fcfcfc"/>
      <path id="Path_2881" data-name="Path 2881" d="M1427.812,1322.39a.176.176,0,0,1-.133-.044.2.2,0,0,1-.074-.154v-1.08a2.883,2.883,0,0,0-1.6-.619.234.234,0,0,0-.13.078c.781,3.327.317,4.873.072,5.4a1.286,1.286,0,0,0,1-.019c.582-.284.985-1.117,1.166-2.409C1428.056,1322.569,1427.844,1322.409,1427.812,1322.39Z" transform="translate(-1399.787 -1293.022)" fill="#fcfcfc"/>
      <path id="Path_2882" data-name="Path 2882" d="M732.54,154.2a1.7,1.7,0,0,0-.314.455q.4-.1.829-.172c.26-.03.51-.061.76-.092a9.557,9.557,0,0,1,5.055.263c2.436-1.274,6.018-3.243,5.7-4-.066-.158-.35-.291-.78-.365a5.8,5.8,0,0,0-.964-.07c-2.783,0-7.919,1.352-10.29,3.978Z" transform="translate(-722.173 -149.822)" fill="#fcfcfc"/>
      <path id="Path_2883" data-name="Path 2883" d="M1102.45,380.234a7.825,7.825,0,0,1,.626.795,14.4,14.4,0,0,0,3.872-.117h0c.029,0,2.926-.507,3.7-.662.019,0,1.905-.336,2.187.325.182.43-.407.9-.866,1.221a5.983,5.983,0,0,1-3.068,1.171h0a.2.2,0,0,1-.2-.2c0-.007,0-.014,0-.021l-2.207-.205a3.7,3.7,0,0,1-1.682.042.2.2,0,0,1,.071-.391,2.837,2.837,0,0,0,1.513-.048.129.129,0,0,0,.062-.086.2.2,0,0,1,.123-.152.573.573,0,0,0,.294-.286.438.438,0,0,0-.011-.294,14.249,14.249,0,0,1-2.28.179c-.492,0-.913-.024-1.232-.051a12.068,12.068,0,0,1,.661,1.239c1.914.66,6.345,1.872,8.2-.287.84-.977,1.159-1.718.92-2.145-.32-.574-1.678-.715-3.723-.388a47.794,47.794,0,0,1-6.965.359Z" transform="translate(-1083.836 -374.001)" fill="#fcfcfc"/>
      <path id="Path_2884" data-name="Path 2884" d="M1279.822,418.685a5.716,5.716,0,0,0,2.847-1.1c.782-.542.727-.738.727-.739-.077-.182-1.039-.233-1.744-.092-.644.129-2.748.5-3.466.621a.8.8,0,0,1-.013.5.921.921,0,0,1-.427.472.544.544,0,0,1-.2.238.749.749,0,0,1-.13.072l2.206.205A.2.2,0,0,1,1279.822,418.685Z" transform="translate(-1254.76 -410.116)" fill="#f4a2ab"/>
      <path id="Path_2885" data-name="Path 2885" d="M675.8,765.216l.1-.082c1.154-.991.542-1.481-.726-1.1-1.049.317-.186,1.039.339,1.187A.344.344,0,0,0,675.8,765.216Z" transform="translate(-665.952 -749.32)" fill="#f4a2ab"/>
      <path id="Path_2886" data-name="Path 2886" d="M639.383,803.079c.867-.223,1.278-1.408,1.3-1.458a.2.2,0,0,0-.376-.128c0,.01-.36,1.033-1.019,1.2a1.147,1.147,0,0,1-1.019-.371l-.164-.6-.1.082a.344.344,0,0,1-.289.007l.165.605c-.083.174-.336.632-.7.684-.252.039-.536-.133-.842-.5a.2.2,0,1,0-.307.252,1.474,1.474,0,0,0,1.08.654.859.859,0,0,0,.126-.009,1.4,1.4,0,0,0,.917-.746,1.418,1.418,0,0,0,1.231.334Z" transform="translate(-628.156 -785.906)" fill="#474747"/>
      <path id="Path_2887" data-name="Path 2887" d="M580.022,686l.013-.022a.2.2,0,0,0,.2-.345l-1.461-.909a.2.2,0,0,0-.21.337l.555.345,0,0a.587.587,0,0,0,.116.818.493.493,0,0,0,.271.08.638.638,0,0,0,.522-.306Z" transform="translate(-571.968 -671.944)" fill="#474747"/>
      <path id="Path_2888" data-name="Path 2888" d="M765.746,650.609a.2.2,0,0,0-.274-.064l-1.461.909a.2.2,0,0,0,.2.345l.014.022a.677.677,0,0,0,.353.277.552.552,0,0,0,.17.027.493.493,0,0,0,.27-.079.587.587,0,0,0,.116-.818l0,0,.555-.345a.2.2,0,0,0,.064-.274Z" transform="translate(-753.131 -638.551)" fill="#474747"/>
      <path id="Path_2889" data-name="Path 2889" d="M834.663,727.006c.592-.058,1.052-.3,1.028-.547s-.523-.395-1.115-.337-1.052.3-1.028.547S834.071,727.064,834.663,727.006Z" transform="translate(-821.151 -712.397)" fill="#f4a2ab"/>
      <path id="Path_2890" data-name="Path 2890" d="M543.07,766.27c-.505-.033-.926.108-.94.317s.385.4.89.438.926-.108.94-.317S543.575,766.3,543.07,766.27Z" transform="translate(-536.472 -751.625)" fill="#f4a2ab"/>
      <path id="Path_2891" data-name="Path 2891" d="M864.135,927.981a.2.2,0,0,0-.28-.027,8.221,8.221,0,0,1-3.713,1.189.2.2,0,0,0,.015.4h.015a8.447,8.447,0,0,0,3.935-1.278A.2.2,0,0,0,864.135,927.981Z" transform="translate(-846.952 -909.53)" fill="#474747"/>
      <path id="Path_2892" data-name="Path 2892" d="M798.44,1070.307a5.9,5.9,0,0,0,2.183,2.73c.338-.6,1.613-2.606,3.692-2.812.864-1.381,1.347-6.636-2.438-9.521-.311-.2-.452-.083-.732.144a1.6,1.6,0,0,1-2.081.143l-.058.344a.2.2,0,0,1-.186.165,2.332,2.332,0,0,1-1.475-.446c-.379.963-1.388,4.41,1.1,9.253Z" transform="translate(-785.272 -1039.155)" fill="#f4a2ab"/>
      <path id="Path_2893" data-name="Path 2893" d="M999.034,2099.132a.2.2,0,0,0-.295-.266,2.811,2.811,0,0,0-.6,2.448.2.2,0,0,0,.192.148.2.2,0,0,0,.05-.006.2.2,0,0,0,.143-.242A2.451,2.451,0,0,1,999.034,2099.132Z" transform="translate(-981.857 -2053.347)" fill="#474747"/>
      <path id="Path_2894" data-name="Path 2894" d="M929.264,2101.462a.194.194,0,0,0,.05-.006.2.2,0,0,0,.142-.242,2.451,2.451,0,0,1,.51-2.082.2.2,0,0,0-.295-.266,2.811,2.811,0,0,0-.6,2.448A.2.2,0,0,0,929.264,2101.462Z" transform="translate(-914.387 -2053.347)" fill="#474747"/>
      <path id="Path_2895" data-name="Path 2895" d="M337.12,1208.232a.712.712,0,0,0,.087-.279.2.2,0,0,0-.382-.088c-.029.073-.054.143-.075.212-.07.1-.222.191-.548.159a.19.19,0,0,0-.186.09h0l-.009.015,0,.006,0,.011,0,.009,0,.008,0,.012,0,.007s0,.01,0,.015v0h0c0,.006,0,.012,0,.019h0a.189.189,0,0,0,0,.02s0,.007,0,.01v.01l0,.013,0,.006.007.018h0a.2.2,0,0,0,.019.035h0a.78.78,0,0,1,.188.616.417.417,0,0,1-.22.238.2.2,0,0,0-.127.185c0,.213-.041.364-.114.413a.214.214,0,0,1-.169.008.2.2,0,0,0-.149.368.658.658,0,0,0,.236.044.534.534,0,0,0,.3-.089.764.764,0,0,0,.288-.623.8.8,0,0,0,.332-.424.925.925,0,0,0-.066-.658,1.022,1.022,0,0,0,.152-.035,1.625,1.625,0,0,0,.375,1.075.2.2,0,0,0,.292-.27,1.277,1.277,0,0,1-.218-1.164Z" transform="translate(-334.43 -1182.893)" fill="#474747"/>
      <path id="Path_2896" data-name="Path 2896" d="M955.083,973.416a.2.2,0,0,0-.277.047.557.557,0,0,1-.528.284.2.2,0,0,0-.222.1.766.766,0,0,1-.486.451.952.952,0,0,1-.682-.194.2.2,0,0,0-.247.311,1.443,1.443,0,0,0,.808.293.96.96,0,0,0,.2-.022,1.078,1.078,0,0,0,.693-.543.975.975,0,0,0,.784-.455.2.2,0,0,0-.048-.277Z" transform="translate(-937.419 -953.95)" fill="#474747"/>
      <path id="Path_2897" data-name="Path 2897" d="M1385.376,650.909a.265.265,0,0,0,.264.248h.017l11.82-.766a.265.265,0,0,0,.247-.281.268.268,0,0,0-.281-.247l-11.82.766A.265.265,0,0,0,1385.376,650.909Z" transform="translate(-1360.219 -637.913)" fill="#474747"/>
      <path id="Path_2898" data-name="Path 2898" d="M1585.806,1562.731a.265.265,0,0,0,.264.248h.017l11.82-.766a.265.265,0,0,0-.034-.528l-11.82.766A.265.265,0,0,0,1585.806,1562.731Z" transform="translate(-1556.015 -1528.65)" fill="#474747"/>
      <path id="Path_2899" data-name="Path 2899" d="M1606.774,1809.02l-7.554.766a.265.265,0,0,0,.027.528h.027l7.554-.766a.265.265,0,1,0-.053-.527Z" transform="translate(-1568.886 -1770.266)" fill="#474747"/>
      <path id="Path_2900" data-name="Path 2900" d="M1769.684,957.564a.265.265,0,0,0,.261.225l.04,0,5.109-.766a.265.265,0,0,0-.079-.524l-5.109.766A.265.265,0,0,0,1769.684,957.564Z" transform="translate(-1735.638 -937.455)" fill="#474747"/>
    </g>
  </g>
</svg>
