<svg id="Group_2163" data-name="Group 2163" xmlns="http://www.w3.org/2000/svg" width="29.608" height="42.075" viewBox="0 0 29.608 42.075">
  <path id="Path_2514" data-name="Path 2514" d="M29.362,17.545V12.168l-1.169.545a6.485,6.485,0,0,0-3.506,5.065,15.222,15.222,0,0,0-5.532,2.337V10.142a3.117,3.117,0,1,0-4.675,0V22.3a9.8,9.8,0,0,0,.39,2.571,15.567,15.567,0,0,0-1.87,7.4A14.8,14.8,0,1,0,29.362,17.545Zm0,4.987V21.518a10.833,10.833,0,1,1-4.675.312v.7a2.829,2.829,0,0,1-.857,2.026,2.633,2.633,0,0,1-1.48.7v-.779H20.792v6.233H22.35v-.779a7.113,7.113,0,0,0,4.675-2.026A7.434,7.434,0,0,0,29.362,22.531ZM16.117,11.155a2.651,2.651,0,0,0,.779.078c.312,0,.545-.078.779-.078V21.518a10.024,10.024,0,0,0-1.48,1.636c0-.234-.078-.545-.078-.779ZM27.8,45.517a13.236,13.236,0,0,1-3.117-26.1v.779a12.628,12.628,0,1,0,4.675-.234v-.779A13.212,13.212,0,0,1,27.8,45.517Z" transform="translate(-13 -5)" fill="#335f32"/>
  <path id="Path_2515" data-name="Path 2515" d="M29.272,36.358a1.684,1.684,0,0,0-.078.857,1.776,1.776,0,0,0,.234.857c.156.234.234.545.39.779l-1.714,1.4-.234-.467c-.078-.156-.078-.312-.156-.39,0-.156-.078-.234-.078-.39,0-.078-.078-.156-.156-.234s-.156-.078-.234-.156h-.234l-.935.234a3.875,3.875,0,0,0,.234,1.247,5.566,5.566,0,0,0,.623,1.169L26,42.046l.467.467a.591.591,0,0,0,.312.156c.156,0,.234,0,.312-.078l.545-.467a2.221,2.221,0,0,0,1.091.623,2.75,2.75,0,0,0,1.091.234,2.4,2.4,0,0,0,1.013-.234,2.21,2.21,0,0,0,.857-.623,2.368,2.368,0,0,0,.39-.545,1.445,1.445,0,0,0,.156-.545v-.545a1.444,1.444,0,0,0-.156-.545c-.078-.156-.156-.39-.234-.545a1.953,1.953,0,0,0-.312-.545l1.636-1.325c.078.078.078.234.156.312s.078.234.156.312c0,.078.078.156.078.234a.168.168,0,0,0,.156.156c.078.078.156.078.234.156h.312l.779-.156a3.911,3.911,0,0,0-.156-.935,2.171,2.171,0,0,0-.545-1.013l.935-.7-.467-.467a.591.591,0,0,0-.312-.156c-.156,0-.234.078-.312.078l-.467.39a2.965,2.965,0,0,0-1.013-.7,2.69,2.69,0,0,0-1.013-.234,3.911,3.911,0,0,0-.935.156,2.8,2.8,0,0,0-.779.545A2.271,2.271,0,0,0,29.272,36.358Zm1.948.234c.078-.078.156-.156.234-.156.078-.078.156-.078.312-.078a.468.468,0,0,1,.312.078c.156.078.234.156.39.234l-1.4,1.169a2.275,2.275,0,0,1-.156-.7A1.256,1.256,0,0,1,31.22,36.592Zm-.7,3.9a.707.707,0,0,1-.234.545,1.077,1.077,0,0,1-1.48.078l1.48-1.247A1.243,1.243,0,0,1,30.519,40.488Z" transform="translate(-15.871 -11.581)" fill="#335f32"/>
</svg>
