<svg xmlns="http://www.w3.org/2000/svg" width="33.546" height="39.242" viewBox="0 0 33.546 39.242">
  <g id="Group_2516" data-name="Group 2516" transform="translate(-7.941 -1.739)">
    <path id="Path_2921" data-name="Path 2921" d="M41.416,35.382c-3.457-5.039-4.422-9.254-3.186-15.211a5.57,5.57,0,0,0,1.984-4.6,1.557,1.557,0,0,0-.463-1.162q.05-.208.1-.415l.005-.021c.03-.137.058-.273.087-.41.019-.092.038-.184.056-.275.024-.124.046-.249.067-.374.018-.1.034-.207.049-.31.018-.122.037-.244.053-.367,0-.015,0-.03.006-.044s0-.005,0-.008a11.158,11.158,0,0,0-.157-3.848c-.885-4.008-4.565-6.6-9.375-6.6a15.516,15.516,0,0,0-3.456.407c-4.057.93-9.049,2.706-9.957,7.5L9.36,10.664A1.661,1.661,0,0,0,7.952,12.5l1.075,9.556a1.653,1.653,0,0,0,1.639,1.476l6.938-.146A30.952,30.952,0,0,0,18.692,27.9c.1.336.187.616.241.82a8.827,8.827,0,0,1,.169,1.038c.142,1.127.319,2.531,1.332,3.1a7.036,7.036,0,0,0,3.7.816h.326v6.7a.4.4,0,0,0,.351.4,25.835,25.835,0,0,0,3.174.2h0c3.881,0,9.354-.881,13.387-5.081A.412.412,0,0,0,41.416,35.382ZM36.159,15.115l-6.128.761-.249-2.083L39.3,12.61c-.006.039-.011.078-.017.117-.023.137-.049.275-.076.413-.019.1-.037.2-.057.3-.041.2-.086.4-.134.6a2.031,2.031,0,0,0-.618-.049A3.712,3.712,0,0,0,36.159,15.115ZM23.871,21.127,22.842,10.7,25.409,12l.858,6.839Zm3.156-2.648-.795-6.341h2.63a1.575,1.575,0,0,1,1.35.783l-.922.114a.4.4,0,0,0-.266.153.412.412,0,0,0-.082.3l.346,2.89a.4.4,0,0,0,.4.357l.049,0,.644-.08a1.589,1.589,0,0,1-1.142,1.222Zm.333-15.54a14.722,14.722,0,0,1,3.281-.387c4.49,0,7.784,2.285,8.6,5.963a10.242,10.242,0,0,1,.173,3.262l-8.345,1.038a2.4,2.4,0,0,0-2.2-1.49h-2.99L22.03,9.378a1.579,1.579,0,0,0-.2-.1l-.049-.025a.255.255,0,0,0-.043-.012A1.607,1.607,0,0,0,21,9.161l-2.935.379C18.8,6.313,21.805,4.213,27.359,2.939ZM10.667,23.131v-.407a.851.851,0,0,1-.847-.755L8.744,12.413a.848.848,0,0,1,.717-.942L21.1,9.968a.928.928,0,0,1,.125-.008.774.774,0,0,1,.243.039l.21.107c.019.013.037.024.056.038a.819.819,0,0,1,.314.585L23.11,21.542a.861.861,0,0,1-.031.342l-.428.41a.4.4,0,0,0-.093.138.776.776,0,0,1-.244.047l-11.627.246Zm17.32,17.036a24.975,24.975,0,0,1-2.728-.15v-6.36c3.142-.176,5.636-2.077,8.028-6.108a.411.411,0,0,0-.135-.558.394.394,0,0,0-.548.137c-2.353,3.965-4.767,5.732-7.829,5.732l-.319,0a6.706,6.706,0,0,1-3.638-.714c-.659-.372-.8-1.5-.927-2.495A9.3,9.3,0,0,0,19.7,28.51c-.056-.213-.144-.5-.25-.851a30.81,30.81,0,0,1-1.044-4.285l3.92-.083a1.566,1.566,0,0,0,1.179-.568,1.7,1.7,0,0,0,.228-.353l3.153-3.012,2.551-.7a2.39,2.39,0,0,0,1.754-2.109L35.643,16a.412.412,0,0,0,.092.133.393.393,0,0,0,.564-.018A3.436,3.436,0,0,1,38.461,14.8a.958.958,0,0,1,.743.2.751.751,0,0,1,.211.571,4.636,4.636,0,0,1-4.086,4.993.406.406,0,0,0-.318.474.4.4,0,0,0,.391.331.385.385,0,0,0,.074-.007,6.949,6.949,0,0,0,1.816-.6c-1.04,5.693-.033,9.882,3.279,14.807C36.755,39.362,31.64,40.167,27.987,40.167Z" transform="translate(0 0)" fill="#335f32"/>
    <path id="Path_2922" data-name="Path 2922" d="M42.243,59.534l-.872-.264a1.039,1.039,0,0,0-.714.094.843.843,0,0,1-.328.09.731.731,0,0,1-.315-.111,1.242,1.242,0,0,0-.532-.17,2.212,2.212,0,0,0-.884.214l-.161.064a.37.37,0,1,0,.259.694c.058-.021.118-.046.18-.071a1.7,1.7,0,0,1,.573-.161.6.6,0,0,1,.224.087,1.433,1.433,0,0,0,.624.193,1.512,1.512,0,0,0,.64-.144,1.012,1.012,0,0,1,.221-.071l.872.264A.367.367,0,0,0,42.489,60,.37.37,0,0,0,42.243,59.534Z" transform="translate(-18.05 -34.019)" fill="#335f32"/>
    <path id="Path_2923" data-name="Path 2923" d="M42.674,62.866a1.232,1.232,0,0,1-1.275-.073.37.37,0,1,0-.357.649,2.259,2.259,0,0,0,1.093.31,1.839,1.839,0,0,0,.9-.237.37.37,0,0,0-.356-.65Z" transform="translate(-19.707 -36.141)" fill="#335f32"/>
    <path id="Path_2924" data-name="Path 2924" d="M22.564,24.8a1.238,1.238,0,0,0-.956-.263l-8.5,1.076a1.273,1.273,0,0,0-1.1,1.407l.05.433.735-.089-.049-.429a.531.531,0,0,1,.455-.587l8.5-1.076a.672.672,0,0,1,.081-.005.533.533,0,0,1,.523.48l.046.461.736-.089-.045-.445A1.244,1.244,0,0,0,22.564,24.8Z" transform="translate(-2.559 -13.449)" fill="#335f32"/>
  </g>
</svg>
