<svg id="Group_2185" data-name="Group 2185" xmlns="http://www.w3.org/2000/svg" width="42.644" height="40.191" viewBox="0 0 42.644 40.191">
  <g id="Group_2183" data-name="Group 2183">
    <path id="Path_2527" data-name="Path 2527" d="M37.762,46.194H12.88a5.185,5.185,0,0,1-5.332-5.024V24.421H5.771a1.774,1.774,0,0,1-1.66-1.113,1.615,1.615,0,0,1,.54-1.851L24.2,6.384a1.862,1.862,0,0,1,2.257,0l19.55,15.073a1.614,1.614,0,0,1,.537,1.859,1.775,1.775,0,0,1-1.675,1.105H43.094V41.169A5.185,5.185,0,0,1,37.762,46.194ZM10.356,21.373a1.647,1.647,0,0,1,.746,1.373V41.169a1.728,1.728,0,0,0,1.777,1.675H37.762a1.728,1.728,0,0,0,1.777-1.675V22.746a1.647,1.647,0,0,1,.746-1.373L25.321,9.834Z" transform="translate(-4.008 -6.003)" fill="#335f32"/>
  </g>
  <g id="Group_2184" data-name="Group 2184" transform="translate(10.151 12.881)">
    <path id="Path_2528" data-name="Path 2528" d="M17.891,16.806,4.434,22.861a.673.673,0,1,0,.552,1.227l13.457-6.056a.673.673,0,1,0-.552-1.227ZM4.71,22.129a.673.673,0,0,0,.572-.319c.424-.684,4.138-6.748,4.138-9.1a4.71,4.71,0,0,0-9.42,0c0,2.353,3.714,8.417,4.138,9.1A.673.673,0,0,0,4.71,22.129Zm0-12.784A3.368,3.368,0,0,1,8.074,12.71c0,1.322-1.844,4.876-3.364,7.447-1.521-2.57-3.364-6.125-3.364-7.447A3.368,3.368,0,0,1,4.71,9.346Z" transform="translate(0 -2.617)" fill="#335f32"/>
    <path id="Path_2529" data-name="Path 2529" d="M6.989,11.955c.032.113.14.156.275.156.231,0,.538-.145.538-.344a.283.283,0,0,0-.011-.059L6.785,8.426c-.059-.188-.3-.28-.549-.28s-.489.092-.548.28l-1,3.281a.283.283,0,0,0-.011.059c0,.2.307.344.538.344.135,0,.242-.043.274-.156l.183-.673H6.806ZM5.843,10.637,6.236,9.2l.393,1.441Zm12.507,3.492a.673.673,0,0,0,.572-.319c.424-.684,4.138-6.748,4.138-9.1a4.71,4.71,0,1,0-9.42,0c0,2.353,3.714,8.417,4.138,9.1A.673.673,0,0,0,18.351,14.129Zm0-12.784A3.368,3.368,0,0,1,21.715,4.71c0,1.322-1.844,4.876-3.364,7.447-1.521-2.57-3.364-6.125-3.364-7.447a3.368,3.368,0,0,1,3.364-3.364Z" transform="translate(-1.53 0)" fill="#335f32"/>
    <path id="Path_2530" data-name="Path 2530" d="M25.786,6.93V6.818a.783.783,0,0,0-.554-.861.838.838,0,0,0,.458-.844c0-.764-.538-.958-1.076-.958h-1.1c-.183,0-.365.086-.365.258V7.835c0,.135.14.253.366.253H24.7A1,1,0,0,0,25.785,6.93ZM23.978,4.887h.565c.2,0,.306.188.306.377a.333.333,0,0,1-.306.371h-.565Zm0,2.469V6.28h.538c.269,0,.431.129.431.5v.086c0,.344-.161.5-.431.5Z" transform="translate(-7.572 -1.359)" fill="#335f32"/>
  </g>
</svg>
