<svg xmlns="http://www.w3.org/2000/svg" width="40" height="40" viewBox="0 0 40 40">
  <g id="Group_2232" data-name="Group 2232" transform="translate(-940 -8996)">
    <circle id="Ellipse_341" data-name="Ellipse 341" cx="20" cy="20" r="20" transform="translate(940 8996)" fill="#f3faf2"/>
    <path id="Path_2558" data-name="Path 2558" d="M25,6H24a2,2,0,0,1-2-2V3a1,1,0,0,0-1-1H17a1,1,0,0,0-1,1V20.5A2.5,2.5,0,1,1,13.5,18a.99.99,0,0,0,.25-.05A.943.943,0,0,0,15,17V13a.943.943,0,0,0-1.25-.95A.99.99,0,0,0,13.5,12a8.5,8.5,0,1,0,8.466,9.168A.962.962,0,0,0,22,21V11.662a7.587,7.587,0,0,0,3.132.329A1,1,0,0,0,26,11V7A1,1,0,0,0,25,6Zm-1,4.023a4.164,4.164,0,0,1-2.368-.8A1,1,0,0,0,20,10V20.5a6.5,6.5,0,1,1-7-6.475V16.05A4.489,4.489,0,1,0,18,20.5V4h2a4,4,0,0,0,4,4Z" transform="translate(945 9001)" fill="#335f32"/>
  </g>
</svg>
