<svg id="Layer_2" data-name="Layer 2" xmlns="http://www.w3.org/2000/svg" width="37.553" height="44.736" viewBox="0 0 37.553 44.736">
  <g id="Layer_1" data-name="Layer 1">
    <path id="Path_2749" data-name="Path 2749" d="M290.18,773.321a18.938,18.938,0,0,1,1.771,3.78c.118.65-.236,3.72-.178,4.075s4.488.178,4.488.178l-.59-8.564Z" transform="translate(-277.274 -738.42)" fill="#639c5b"/>
    <path id="Path_2750" data-name="Path 2750" d="M590.14,644.073c.121.237.236.77.65.948s1.831-.651,1.831-.651a3.756,3.756,0,0,0,.413,1.24,1.729,1.729,0,0,0,1.417.236c.294-.177.473-1.3.473-1.3s.828.886,1,1a2.944,2.944,0,0,0,1.712-.3c.168-.225-.037-.667-.057-.7v0a1.611,1.611,0,0,0,.709-.059.059.059,0,0,0,.014-.014c.152-.128-.016-.528-.073-.872s-1.477-1.24-1.477-1.24-.178-4.961-.471-6.5a21.444,21.444,0,0,0-3.424-6.437l-1.184.884a23.877,23.877,0,0,1,.767,6.024c-.177,2.363-.886,6.378-.886,6.378S590.022,643.837,590.14,644.073Z" transform="translate(-563.888 -601.436)" fill="#64b079"/>
    <path id="Path_2751" data-name="Path 2751" d="M32.6,665.508a4.314,4.314,0,0,1-4.843-1.063c-.354-.65,1.831-.472,3.247-1.24s5.079-.356,5.079-.356l-2.656,2.837Z" transform="translate(-26.486 -633.264)" fill="#64b079"/>
    <path id="Path_2752" data-name="Path 2752" d="M60.45,447.926c1.063,1.832,14.351-.825,16.654-3.66a24.471,24.471,0,0,0,3.069-4.492,12.641,12.641,0,0,1-3.448.875,9.685,9.685,0,0,1-1.529.048c-.152-.009-.3-.021-.455-.037-1.17-.124-2.4-.346-3.579-.558l-.267-.048a16.186,16.186,0,0,0-4.543-.457,6.95,6.95,0,0,0-3.42,2.521c-.06.071-.117.143-.175.218-.071.092-.142.184-.209.28a11.341,11.341,0,0,0-1.926,4.287C60.551,447.235,60.492,447.577,60.45,447.926Z" transform="translate(-57.761 -419.996)" fill="#4d4e68"/>
    <path id="Path_2753" data-name="Path 2753" d="M60.45,452.852c1.063,1.832,14.351-.825,16.654-3.66a24.47,24.47,0,0,0,3.069-4.492,12.64,12.64,0,0,1-3.448.875c-1.715,4.454-8.442,5.462-16.1,6.254C60.551,452.161,60.492,452.5,60.45,452.852Z" transform="translate(-57.761 -424.922)" fill="#4d4e68" opacity="0.4" style="mix-blend-mode: multiply;isolation: isolate"/>
    <path id="Path_2754" data-name="Path 2754" d="M112.032,459.26h.028a.133.133,0,0,0,.129-.1,39.857,39.857,0,0,1,1.525-5.4h0c1.166-.1,5.51-.726,6-1.268.835.861,2.584,2.769,3.82,4.133a.14.14,0,0,0,.1.044.135.135,0,0,0,.1-.223c-.335-.368-2.785-3.069-3.86-4.169a5.493,5.493,0,0,0,.478-1.143l-.267-.048a5.351,5.351,0,0,1-.406.994,1.373,1.373,0,0,1-.151.22l-.011.012c-.366.416-4.306,1.042-5.667,1.172h0c-.126.012-.23.019-.306.023h-.064a5.8,5.8,0,0,1-1.354-.356c-.06.071-.117.143-.175.218a7.07,7.07,0,0,0,1.474.4,40.57,40.57,0,0,0-1.493,5.334A.133.133,0,0,0,112.032,459.26Z" transform="translate(-106.949 -431.018)" fill="#4d4e68" opacity="0.5" style="mix-blend-mode: multiply;isolation: isolate"/>
    <path id="Path_2755" data-name="Path 2755" d="M372.49,26.619l1.942,1.664,1.366,1.171.3.037,1.414.178.4.05,1.167.147.258.032.93-.539,4.119-2.385c.138-.08.264-.8.315-.948.243-.7.5-1.395.79-2.076a16,16,0,0,1,2-3.679,17.07,17.07,0,0,1,2.265-2.224c.809-.7,1.653-1.357,2.438-2.084.423-.393,1.095-.926,1.192-1.54a19.939,19.939,0,0,0,.059-2.983c-.036-1.173-.1-2.351-.144-2.982-.02-.3-.032-.473-.032-.473a18.772,18.772,0,0,1-.326-2.438,4.069,4.069,0,0,1,.03-.868c.178-1,.236-3.78-.944-4.49s-2.775.651-3.365.769-3.249.058-3.9.178-3.368-1.478-4.43-.592c-.921.767-1,3.445-1.083,5.256-.012.28-.025.539-.04.767-.03.445-.126,1.04-.236,1.708a28.444,28.444,0,0,0-.473,3.848,5.725,5.725,0,0,0,.237,2l.011.027c.723,2,3.446,3.765,3.68,6.529-.108,1.2-3.847,3.168-6.709,4.507C373.939,26.029,372.49,26.619,372.49,26.619Z" transform="translate(-355.924 0.014)" fill="#7acc8b"/>
    <path id="Path_2756" data-name="Path 2756" d="M416.16,332.7l1.366,1.171.3.037,1.414.178a.815.815,0,0,1,.144-.037.282.282,0,0,1,.257.089l1.167.147.258.032.93-.539,4.119-2.385c.138-.08.264-.8.315-.948.243-.7.5-1.395.79-2.077a15.957,15.957,0,0,1,2-3.682,17.068,17.068,0,0,1,2.265-2.224c.809-.7,1.653-1.357,2.438-2.084.423-.393,1.095-.926,1.192-1.54,0,0-4.047,3.691-7.322,4.045-3,.324-6.3-2.771-7.312-4.314.723,2,3.446,3.765,3.68,6.529-.108,1.2-3.847,3.168-6.709,4.507-.475.833-.817,1.428-.817,1.428Z" transform="translate(-397.651 -304.401)" fill="#64b079"/>
    <path id="Path_2757" data-name="Path 2757" d="M735.69,94.468c0,1.965,1.061,3.558,2.37,3.558s2.37-1.593,2.37-3.558-1.061-3.558-2.37-3.558S735.69,92.5,735.69,94.468Z" transform="translate(-702.971 -86.866)" fill="#e0ffff"/>
    <ellipse id="Ellipse_370" data-name="Ellipse 370" cx="1.275" cy="2.17" rx="1.275" ry="2.17" transform="translate(32.871 5.594)" fill="#15407b"/>
    <path id="Path_2758" data-name="Path 2758" d="M742.44,161.24c0,.342.163.62.364.62s.364-.278.364-.62-.163-.62-.364-.62S742.44,160.9,742.44,161.24Z" transform="translate(-709.42 -153.476)" fill="#e8ffff"/>
    <path id="Path_2759" data-name="Path 2759" d="M522.32,94.468c0,1.965-1.061,3.558-2.37,3.558s-2.37-1.593-2.37-3.558,1.061-3.558,2.37-3.558S522.32,92.5,522.32,94.468Z" transform="translate(-494.561 -86.866)" fill="#e0ffff"/>
    <ellipse id="Ellipse_371" data-name="Ellipse 371" cx="1.275" cy="2.17" rx="1.275" ry="2.17" transform="translate(25.056 5.594)" fill="#15407b"/>
    <path id="Path_2760" data-name="Path 2760" d="M601.739,161.24c0,.342-.163.62-.364.62s-.365-.278-.365-.62.163-.62.365-.62S601.739,160.9,601.739,161.24Z" transform="translate(-574.28 -153.476)" fill="#e8ffff"/>
    <path id="Path_2761" data-name="Path 2761" d="M608.137,282.928a4.051,4.051,0,0,0,1.891,1.214,3.213,3.213,0,0,0,2.446-.79c.914-.7,1.508-1.626,1.054-1.957-.974-.708-6.422-.93-6.6-.531C606.82,281.1,607.334,282.09,608.137,282.928Z" transform="translate(-579.921 -268.183)" fill="#4e805a"/>
    <path id="Path_2762" data-name="Path 2762" d="M634.42,314.764a4.052,4.052,0,0,0,1.891,1.214,3.213,3.213,0,0,0,2.446-.79A2.906,2.906,0,0,0,634.42,314.764Z" transform="translate(-606.205 -300.019)" fill="#ce6480"/>
    <path id="Path_2763" data-name="Path 2763" d="M82.879,595.413c.6.553,4.581,2.388,11.284,1.9l.3-.023h0q1.745-.145,3.469-.464c5.271-.971,8.458-3.366,9.918-5.381.058-.076.112-.154.163-.23.884-1.318,1.014-2.439.489-2.831-.837-.625-2.454.073-4.032.889l-.245.128c-1.462.764-2.854,1.575-3.519,1.465-1.417-.237-3.189-2.067-3.189-2.067s-9.036,1.063-9.686,3.012S82.17,594.767,82.879,595.413Z" transform="translate(-79.127 -561.989)" fill="#dde3bb"/>
    <path id="Path_2764" data-name="Path 2764" d="M293.325,642.376l.3-.023c-.3-.432-2.495-3.71-2.066-6.883a.133.133,0,1,0-.262-.036C290.887,638.482,292.806,641.6,293.325,642.376Z" transform="translate(-278.289 -607.047)" fill="#a0ae97"/>
    <path id="Path_2765" data-name="Path 2765" d="M382.923,615.77a.138.138,0,0,1,.139.126c.113,2.326,2.984,4.306,3.013,4.326a.133.133,0,1,1-.149.22c-.123-.083-3.009-2.073-3.129-4.532A.133.133,0,0,1,382.923,615.77Z" transform="translate(-365.772 -588.383)" fill="#a0ae97"/>
    <path id="Path_2766" data-name="Path 2766" d="M564.51,613.608a8.9,8.9,0,0,0,3.623,2.046c.058-.076.112-.154.163-.23a9.01,9.01,0,0,1-3.541-1.944Z" transform="translate(-539.404 -586.195)" fill="#a0ae97"/>
    <path id="Path_2767" data-name="Path 2767" d="M61.741,679.315c-.021.267.356.556.943.815.08.036.165.071.251.1a9.677,9.677,0,0,0,1.334.4q.146.035.292.064l.108.021q.133.027.267.048a9.616,9.616,0,0,0,2.059.143.239.239,0,0,0,.051,0l.277-.016c.044,0,.085,0,.128-.007l.278-.019a8.368,8.368,0,0,0,2.962-.571.964.964,0,0,0,.214-.156.476.476,0,0,0,.165-.35c0-.767-1.24-1.476-1.24-1.476s.473-5.788.119-6.674h0c-.356-.89-2.479-5.018-2.479-5.018l-2.6.118s0,3.069-.118,3.78S61.8,678.546,61.741,679.315Z" transform="translate(-58.995 -636.972)" fill="#7acc8b"/>
    <path id="Path_2768" data-name="Path 2768" d="M61.76,679.306s2.688-4.9,3.219-6.5.267-4.961,1.594-4.7c1.308.262,3.332,3.412,3.395,3.513-.356-.889-2.479-5.018-2.479-5.018l-2.6.118s0,3.069-.118,3.78S61.82,678.537,61.76,679.306Z" transform="translate(-59.013 -636.962)" fill="#64b079"/>
    <path id="Path_2769" data-name="Path 2769" d="M173.146,755.85a.685.685,0,0,0,.4-.133,1.769,1.769,0,0,0,.614-1.156.237.237,0,0,0-.083-.178c-.235-.214-1.057-.154-1.3-.131a.134.134,0,1,0,.025.267,2.539,2.539,0,0,1,1.094.058,1.536,1.536,0,0,1-.5.926.394.394,0,0,1-.384.059,2.288,2.288,0,0,1-1.154-1.628c.024-.169.6-.231,1.1-.182a.134.134,0,1,0,.026-.267c-.218-.022-1.312-.1-1.385.409a2.492,2.492,0,0,0,1.327,1.915A.668.668,0,0,0,173.146,755.85Z" transform="translate(-163.954 -719.956)" fill="#7acc8b"/>
    <g id="Group_2406" data-name="Group 2406" transform="translate(3.692 41.374)" style="mix-blend-mode: multiply;isolation: isolate">
      <path id="Path_2770" data-name="Path 2770" d="M190.2,932.81l.278-.019c.254-1.038.654-2.158,1.067-2.247.267-.056.813.2,1.9,1.676a.966.966,0,0,0,.214-.156c-.688-.941-1.541-1.912-2.167-1.779S190.427,931.851,190.2,932.81Z" transform="translate(-185.432 -930.272)" fill="#7acc8b"/>
      <path id="Path_2771" data-name="Path 2771" d="M127.65,936.668q.133.027.267.048c.391-1.019.87-1.944,1.127-1.968h.007c.209,0,.623.912.978,2.11l.277-.016c-.306-1.063-.79-2.413-1.286-2.357S127.967,935.83,127.65,936.668Z" transform="translate(-125.664 -934.295)" fill="#7acc8b"/>
      <path id="Path_2772" data-name="Path 2772" d="M83,947.372c.08.036.165.071.251.1.222-.482.47-.869.663-.907a.108.108,0,0,1,.094.027,2.781,2.781,0,0,1,.578,1.279c.1.023.195.044.292.064a3.148,3.148,0,0,0-.722-1.563.381.381,0,0,0-.3-.069C83.544,946.372,83.241,946.857,83,947.372Z" transform="translate(-83 -945.588)" fill="#7acc8b"/>
    </g>
    <path id="Path_2773" data-name="Path 2773" d="M743,944.1l.65,1.122a1.611,1.611,0,0,0,.709-.059.061.061,0,0,0,.014-.014Z" transform="translate(-709.956 -902.111)" fill="#64b079" style="mix-blend-mode: multiply;isolation: isolate"/>
    <path id="Path_2774" data-name="Path 2774" d="M345.074,615.334a1.325,1.325,0,0,0,1.122.356,6.2,6.2,0,0,0,.884-1.088c-.016.065-.2.833-.028,1.057s1.093.089,1.655.058.765-1.18.765-1.18-.03.974.236,1.21a2.106,2.106,0,0,0,1.743-.178,4.309,4.309,0,0,0,.324-1.063s1.683.445,2.037.178a1.161,1.161,0,0,0,.356-1.152c-.089-.354-1.595-1.063-1.595-1.063a12.171,12.171,0,0,1-.65-8.713.013.013,0,0,1,0-.005.1.1,0,0,1,0-.018,25.442,25.442,0,0,1,.916-2.725c.267-.685.588-1.438.967-2.271,0,0-.73-1.29-1.093-.974a27.826,27.826,0,0,0-2.856,2.872,24.387,24.387,0,0,0-2.764,3.878,10.131,10.131,0,0,0-.934,2.108,41.846,41.846,0,0,0-.679,6.851S344.865,615.038,345.074,615.334Z" transform="translate(-329.686 -571.13)" fill="#7acc8b"/>
    <path id="Path_2775" data-name="Path 2775" d="M.855,405.182a21.181,21.181,0,0,0,2.563.322l.294.021c.913.057,2,.083,3.262.044.905-.025,1.9-.083,2.986-.186.089-.009.182-.018.274-.028.873-.087,1.8-.2,2.785-.353a23.866,23.866,0,0,0,5.6-1.623h0c.1-.039.193-.081.291-.122a25.835,25.835,0,0,0,3.086-1.6,19.44,19.44,0,0,0,2.479-1.761c.069-.059.136-.117.2-.178a5.451,5.451,0,0,0,1.743-2.281c.59-2.245-.445-4.417-2.6-4.548-.546-.032-1.086.383-1.667,1.047-.089.1-.182.213-.273.328v.007h0c-.5.606-1.02,1.361-1.6,2.149a16.342,16.342,0,0,1-3.407,3.641c-.087.064-.175.126-.267.185-.17.113-.344.222-.521.321a18.25,18.25,0,0,1-5.988,1.846c-.1.016-.2.03-.306.044-1.271.186-2.532.294-3.687.36-.877.052-1.69.078-2.406.094l-.3.005-.6.012C-.327,403-.623,404.886.855,405.182Z" transform="translate(0.004 -375.418)" fill="#656377"/>
    <g id="Group_2407" data-name="Group 2407" transform="translate(3.106 18.523)" opacity="0.5" style="mix-blend-mode: multiply;isolation: isolate">
      <path id="Path_2776" data-name="Path 2776" d="M492.2,416.81v.007h0c.041,2.364,1.9,4.8,2.594,5.622.069-.059.136-.117.2-.178-.7-.849-2.663-3.437-2.523-5.782C492.383,416.585,492.291,416.7,492.2,416.81Z" transform="translate(-473.416 -416.48)" fill="#656377"/>
      <path id="Path_2777" data-name="Path 2777" d="M373.61,554.475a4.555,4.555,0,0,0,2.011,3.127h0c.1-.039.193-.081.291-.122-.489-.344-2.09-1.6-2.038-3.189C373.789,554.354,373.7,554.416,373.61,554.475Z" transform="translate(-360.1 -548.161)" fill="#656377"/>
      <path id="Path_2778" data-name="Path 2778" d="M215.437,610.134c.089-.009.182-.018.274-.028a3.324,3.324,0,0,1-.131-2.935c-.1.016-.2.03-.306.044A3.652,3.652,0,0,0,215.437,610.134Z" transform="translate(-208.581 -598.689)" fill="#656377"/>
      <path id="Path_2779" data-name="Path 2779" d="M70.156,620.935l.294.021a2.646,2.646,0,0,1-.009-2.606l-.3.005A2.894,2.894,0,0,0,70.156,620.935Z" transform="translate(-69.84 -609.372)" fill="#656377"/>
    </g>
    <path id="Path_2780" data-name="Path 2780" d="M355.24,613.473a40.81,40.81,0,0,1,.886-6.054c.53-1.595,5.227-8.415,5.758-7.884.507.507-.14,3.889-.2,4.2a25.436,25.436,0,0,1,.916-2.725c.267-.685.588-1.438.967-2.271,0,0-.73-1.29-1.093-.974a27.813,27.813,0,0,0-2.856,2.872,24.388,24.388,0,0,0-2.764,3.878,10.133,10.133,0,0,0-.934,2.109A41.737,41.737,0,0,0,355.24,613.473Z" transform="translate(-339.441 -571.13)" fill="#64b079"/>
    <path id="Path_2781" data-name="Path 2781" d="M456.19,396.468c.953,1.258,2.372,3.533,1.717,5.234a19.44,19.44,0,0,0,2.479-1.761c.069-.059.136-.117.2-.178a5.452,5.452,0,0,0,1.743-2.281c.59-2.245-.445-4.417-2.6-4.548-.546-.032-1.086.383-1.667,1.047-.089.1-.182.213-.273.328v.007h0C457.3,394.924,456.771,395.679,456.19,396.468Z" transform="translate(-435.901 -375.456)" fill="#656377" opacity="0.2" style="mix-blend-mode: multiply;isolation: isolate"/>
    <path id="Path_2782" data-name="Path 2782" d="M.858,618.558a21.156,21.156,0,0,0,2.563.322l.294.021c.913.057,2,.083,3.262.045-.663-.627-1.492-1.7-.865-2.746-.877.052-1.69.078-2.406.094l-.3.005-.6.012C-.324,616.372-.62,618.262.858,618.558Z" transform="translate(0.001 -588.794)" fill="#656377" opacity="0.2" style="mix-blend-mode: multiply;isolation: isolate"/>
    <path id="Path_2783" data-name="Path 2783" d="M107.69,442.7c3.825.973,9.284.857,12.647-1.919-.152-.009-.3-.021-.455-.037-1.17-.124-2.4-.346-3.579-.558l-.267-.048a16.186,16.186,0,0,0-4.543-.457,6.95,6.95,0,0,0-3.42,2.521c-.06.071-.117.143-.175.218C107.828,442.508,107.758,442.6,107.69,442.7Z" transform="translate(-102.9 -420.072)" fill="#4d4e68" opacity="0.4" style="mix-blend-mode: screen;isolation: isolate"/>
  </g>
</svg>
