<svg id="Group_2151" data-name="Group 2151" xmlns="http://www.w3.org/2000/svg" width="48" height="48" viewBox="0 0 48 48">
  <rect id="Rectangle_1777" data-name="Rectangle 1777" width="48" height="48" rx="24" fill="#0dc143"/>
  <path id="Path_2512" data-name="Path 2512" d="M34.751,13.212a13.623,13.623,0,0,0-9.762-4.087A13.823,13.823,0,0,0,11.14,23.049a14.613,14.613,0,0,0,1.816,6.887l-1.968,7.189,7.341-1.892A13.513,13.513,0,0,0,24.913,36.9,13.92,13.92,0,0,0,38.762,22.974,13.734,13.734,0,0,0,34.751,13.212Zm-9.762,21.34a11.243,11.243,0,0,1-5.827-1.589l-.454-.227-4.389,1.135,1.135-4.313-.3-.454a11.487,11.487,0,1,1,15.816,3.708A11.033,11.033,0,0,1,24.989,34.552Zm6.66-8.4-.832-.378s-1.211-.53-1.968-.908c-.076,0-.151-.076-.227-.076a1.094,1.094,0,0,0-.53.151s-.076.076-1.135,1.286a.416.416,0,0,1-.378.227H26.5a.574.574,0,0,1-.3-.151l-.378-.151a7.356,7.356,0,0,1-2.195-1.438c-.151-.151-.378-.3-.53-.454a8.452,8.452,0,0,1-1.438-1.816l-.076-.151c-.076-.076-.076-.151-.151-.3a.568.568,0,0,1,.076-.378s.3-.378.53-.605c.151-.151.227-.378.378-.53a.932.932,0,0,0,.151-.757,29.477,29.477,0,0,0-1.211-2.876.876.876,0,0,0-.53-.378h-.833c-.151,0-.3.076-.454.076l-.076.076c-.151.076-.3.227-.454.3-.151.151-.227.3-.378.454A3.859,3.859,0,0,0,17.8,19.72a4.489,4.489,0,0,0,.378,1.74l.076.227a12.607,12.607,0,0,0,2.8,3.859l.3.3a4.577,4.577,0,0,1,.605.605A13.522,13.522,0,0,0,27.41,29.33c.227.076.53.076.757.151h.757a2.807,2.807,0,0,0,1.135-.3c.227-.151.378-.151.53-.3l.151-.151c.151-.151.3-.227.454-.378a2.006,2.006,0,0,0,.378-.454,4.337,4.337,0,0,0,.3-1.059V26.3A.937.937,0,0,0,31.648,26.152Z" fill="#fff"/>
</svg>
